<svg width="160" height="29" viewBox="0 0 160 29" fill="none" xmlns="http://www.w3.org/2000/svg">
<path d="M0 7C0 3.13401 3.13401 0 7 0H22C25.866 0 29 3.13401 29 7V22C29 25.866 25.866 29 22 29H7C3.13401 29 0 25.866 0 22V7Z" fill="url(#paint0_linear)"/>
<rect width="29" height="29" rx="6.45703" fill="url(#paint1_linear)"/>
<circle cx="14.5" cy="14.5" r="12.6875" fill="#2E2E2F"/>
<path fill-rule="evenodd" clip-rule="evenodd" d="M14.4322 6.96662C14.446 6.89126 14.554 6.89126 14.5679 6.96662L14.7665 8.04943C14.8399 8.0524 14.9129 8.05658 14.9856 8.06197L15.3088 7.00968C15.3313 6.93643 15.4386 6.94899 15.4435 7.02545L15.5149 8.12308C15.5874 8.1345 15.6596 8.14712 15.7314 8.16094L16.1744 7.15405C16.2053 7.08392 16.3104 7.10887 16.3064 7.18538L16.2497 8.28309C16.3205 8.30291 16.3908 8.3239 16.4606 8.34603L17.0174 7.39778C17.0562 7.33171 17.1577 7.36871 17.1449 7.44425L16.9608 8.52785C17.0288 8.55578 17.0962 8.58483 17.1629 8.61497L17.8263 7.73757C17.8726 7.67645 17.9691 7.725 17.9475 7.79854L17.6386 8.85392C17.7027 8.88951 17.7661 8.92615 17.8289 8.96382L18.5903 8.16881C18.6433 8.11347 18.7335 8.17291 18.7036 8.24345L18.2737 9.25648C18.3332 9.29917 18.3918 9.34284 18.4497 9.38746L19.2989 8.68568C19.3579 8.63685 19.4407 8.70638 19.4027 8.77297L18.8578 9.72966C18.9118 9.77885 18.965 9.82895 19.0173 9.87992L19.9426 9.28116C20.0069 9.23952 20.081 9.31818 20.0356 9.37992L19.3832 10.2669C19.4311 10.322 19.4782 10.3779 19.5243 10.4346L20.5126 9.94721C20.5814 9.91331 20.6458 10 20.5936 10.0561L19.8428 10.861C19.8841 10.9213 19.9244 10.9823 19.9637 11.0441L21.0014 10.6748C21.0736 10.6491 21.1276 10.7427 21.0691 10.7924L20.2304 11.5043C20.2645 11.5691 20.2975 11.6345 20.3293 11.7005L21.4022 11.4541C21.4769 11.437 21.5197 11.5362 21.4559 11.5787L20.5405 12.1884C20.5667 12.2567 20.5918 12.3255 20.6158 12.3949L21.7097 12.2746C21.7859 12.2662 21.8168 12.3698 21.7485 12.4046L20.7683 12.9041C20.7863 12.9749 20.8032 13.0462 20.8189 13.1179L21.9197 13.1251C21.9963 13.1256 22.0151 13.2321 21.9432 13.2588L20.9107 13.6416C20.9204 13.7138 20.9288 13.7864 20.936 13.8594L22.0294 13.9943C22.1054 14.0037 22.1117 14.1116 22.0372 14.1297L20.9665 14.3905C20.9671 14.427 20.9674 14.4635 20.9674 14.5001C20.9674 14.5367 20.9671 14.5731 20.9665 14.6095L22.0372 14.8702C22.1117 14.8884 22.1054 14.9963 22.0294 15.0057L20.936 15.1406C20.9288 15.2135 20.9204 15.2861 20.9108 15.3584L21.9432 15.7412C22.0151 15.7679 21.9963 15.8743 21.9197 15.8748L20.8189 15.8821C20.8033 15.9538 20.7864 16.0251 20.7684 16.0959L21.7485 16.5954C21.8168 16.6302 21.7859 16.7338 21.7097 16.7254L20.6159 16.6051C20.5919 16.6745 20.5668 16.7433 20.5406 16.8116L21.4559 17.4212C21.5197 17.4637 21.4769 17.563 21.4022 17.5459L20.3295 17.2995C20.2976 17.3656 20.2646 17.431 20.2306 17.4958L21.0691 18.2076C21.1276 18.2572 21.0736 18.3509 21.0014 18.3252L19.9639 17.9559C19.9246 18.0177 19.8843 18.0788 19.8429 18.1391L20.5936 18.9439C20.6458 18.9999 20.5814 19.0867 20.5126 19.0528L19.5245 18.5655C19.4783 18.6222 19.4313 18.6781 19.3833 18.7333L20.0356 19.62C20.081 19.6818 20.0069 19.7604 19.9426 19.7188L19.0175 19.1202C18.9652 19.1712 18.912 19.2213 18.8579 19.2705L19.4027 20.227C19.4407 20.2936 19.3579 20.3631 19.2989 20.3143L18.4499 19.6127C18.392 19.6573 18.3333 19.701 18.2738 19.7437L18.7036 20.7565C18.7335 20.8271 18.6433 20.8865 18.5903 20.8311L17.8291 20.0363C17.7663 20.074 17.7028 20.1107 17.6387 20.1463L17.9475 21.2014C17.9691 21.275 17.8726 21.3235 17.8263 21.2624L17.1631 20.3852C17.0963 20.4154 17.0289 20.4445 16.9609 20.4724L17.1449 21.5557C17.1577 21.6313 17.0562 21.6683 17.0174 21.6022L16.4607 20.6542C16.3909 20.6764 16.3205 20.6974 16.2497 20.7172L16.3064 21.8146C16.3104 21.8911 16.2053 21.916 16.1744 21.8459L15.7315 20.8393C15.6597 20.8531 15.5875 20.8658 15.5148 20.8772L15.4435 21.9745C15.4386 22.051 15.3313 22.0635 15.3088 21.9903L14.9857 20.9383C14.9129 20.9437 14.8399 20.9479 14.7665 20.9509L14.5679 22.0333C14.554 22.1087 14.446 22.1087 14.4322 22.0333L14.2336 20.9509C14.1602 20.9479 14.0871 20.9437 14.0144 20.9383L13.6913 21.9903C13.6688 22.0635 13.5615 22.051 13.5565 21.9745L13.4852 20.8772C13.4126 20.8658 13.3403 20.8532 13.2685 20.8394L12.8256 21.8459C12.7948 21.916 12.6897 21.8911 12.6936 21.8146L12.7504 20.7172C12.6795 20.6974 12.6091 20.6764 12.5393 20.6543L11.9826 21.6022C11.9438 21.6683 11.8423 21.6313 11.8552 21.5557L12.0391 20.4725C11.9711 20.4445 11.9037 20.4155 11.8369 20.3853L11.1737 21.2624C11.1275 21.3235 11.031 21.275 11.0525 21.2014L11.3613 20.1464C11.2972 20.1108 11.2337 20.0741 11.1709 20.0364L10.4098 20.8311C10.3568 20.8865 10.2665 20.8271 10.2965 20.7565L10.7262 19.7438C10.6667 19.7011 10.608 19.6574 10.55 19.6127L9.70117 20.3143C9.6421 20.3631 9.55938 20.2936 9.59731 20.227L10.142 19.2706C10.088 19.2214 10.0348 19.1713 9.98242 19.1202L9.05749 19.7188C8.99315 19.7604 8.91905 19.6818 8.96447 19.62L9.61666 18.7334C9.56866 18.6783 9.52159 18.6223 9.47545 18.5656L8.48742 19.0528C8.41868 19.0867 8.35421 18.9999 8.40649 18.9439L9.15699 18.1392C9.11566 18.0789 9.07533 18.0178 9.03603 17.956L7.99868 18.3252C7.92646 18.3509 7.87249 18.2572 7.93092 18.2076L8.76934 17.4959C8.73528 17.4311 8.70229 17.3656 8.67039 17.2996L7.59785 17.5459C7.52314 17.563 7.48039 17.4637 7.54419 17.4212L8.45932 16.8117C8.43307 16.7434 8.40794 16.6745 8.38396 16.6051L7.29037 16.7254C7.21416 16.7338 7.18321 16.6302 7.25151 16.5954L8.23151 16.096C8.21346 16.0251 8.1966 15.9538 8.18092 15.8821L7.08037 15.8748C7.0037 15.8743 6.98496 15.7679 7.05684 15.7412L8.08907 15.3584C8.07945 15.2862 8.07104 15.2135 8.06383 15.1405L6.97069 15.0057C6.8946 14.9963 6.88832 14.8884 6.96281 14.8702L8.03333 14.6095C8.03272 14.5731 8.03242 14.5367 8.03242 14.5001C8.03242 14.4635 8.03272 14.4269 8.03333 14.3905L6.96281 14.1297C6.88832 14.1116 6.8946 14.0037 6.97069 13.9943L8.06387 13.8594C8.07107 13.7864 8.07949 13.7138 8.08911 13.6415L7.05684 13.2588C6.98496 13.2321 7.0037 13.1256 7.08037 13.1251L8.18099 13.1179C8.19667 13.0461 8.21354 12.9749 8.23158 12.904L7.25151 12.4046C7.18321 12.3698 7.21416 12.2662 7.29037 12.2746L8.38407 12.3949C8.40804 12.3255 8.43317 12.2566 8.45942 12.1883L7.54419 11.5787C7.48039 11.5362 7.52314 11.437 7.59785 11.4541L8.67053 11.7004C8.70242 11.6344 8.73541 11.569 8.76946 11.5042L7.93092 10.7924C7.87249 10.7427 7.92646 10.6491 7.99868 10.6748L9.03619 11.044C9.07549 10.9823 9.1158 10.9212 9.15711 10.8609L8.40649 10.0561C8.35421 10 8.41868 9.91331 8.48742 9.94721L9.47564 10.4345C9.52175 10.3778 9.56881 10.3219 9.61679 10.2668L8.96447 9.37992C8.91905 9.31818 8.99315 9.23952 9.05749 9.28116L9.98262 9.87985C10.0349 9.82886 10.0881 9.77875 10.1422 9.72954L9.59731 8.77297C9.55938 8.70638 9.6421 8.63685 9.70117 8.68568L10.5502 9.38738C10.6081 9.34275 10.6668 9.29907 10.7263 9.25637L10.2965 8.24345C10.2665 8.17291 10.3568 8.11347 10.4098 8.16881L11.1711 8.96375C11.2338 8.92607 11.2973 8.88942 11.3614 8.85383L11.0525 7.79854C11.031 7.725 11.1275 7.67645 11.1737 7.73757L11.8371 8.61491C11.9038 8.58476 11.9712 8.5557 12.0392 8.52777L11.8552 7.44425C11.8423 7.36871 11.9438 7.33171 11.9826 7.39778L12.5394 8.34598C12.6093 8.32384 12.6796 8.30285 12.7504 8.28304L12.6936 7.18538C12.6897 7.10887 12.7948 7.08392 12.8256 7.15405L13.2686 8.1609C13.3404 8.14709 13.4126 8.13447 13.4852 8.12305L13.5565 7.02545C13.5615 6.94899 13.6688 6.93643 13.6913 7.00968L14.0145 8.06196C14.0872 8.05657 14.1602 8.05239 14.2335 8.04942L14.4322 6.96662ZM14.5 19.9375C17.5031 19.9375 19.9375 17.503 19.9375 14.5C19.9375 11.4969 17.5031 9.06248 14.5 9.06248C11.497 9.06248 9.06253 11.4969 9.06253 14.5C9.06253 17.503 11.497 19.9375 14.5 19.9375Z" fill="url(#paint2_linear)"/>
<g filter="url(#filter0_d)">
<path fill-rule="evenodd" clip-rule="evenodd" d="M14.5824 2.87558C14.5683 2.78089 14.4317 2.78089 14.4176 2.87558L14.1449 4.70747C14.001 4.71259 13.858 4.72082 13.7157 4.73208L13.2323 2.94462C13.2073 2.85221 13.0717 2.86806 13.0687 2.96375L13.0105 4.81363C12.8682 4.83534 12.7268 4.86012 12.5865 4.88788L11.8994 3.16993C11.8638 3.08104 11.731 3.11253 11.7391 3.20792L11.896 5.05093C11.7571 5.08911 11.6195 5.13027 11.4832 5.17433L10.6016 3.54845C10.556 3.46429 10.4277 3.51099 10.4468 3.6048L10.8166 5.41701C10.6833 5.47113 10.5514 5.52809 10.4211 5.58783L9.35659 4.07507C9.3015 3.99678 9.17947 4.05806 9.20937 4.14901L9.78727 5.90678C9.66137 5.97598 9.53716 6.04786 9.41471 6.12234L8.18111 4.74267C8.1173 4.67131 8.00321 4.74634 8.04347 4.8332L8.82198 6.51297C8.70514 6.59618 8.59021 6.68189 8.47726 6.77002L7.09108 5.54223C7.01942 5.47875 6.91481 5.56653 6.96488 5.64813L7.93351 7.22676C7.82718 7.32282 7.72297 7.42117 7.62096 7.52174L6.10125 6.46292C6.0227 6.40819 5.92899 6.50752 5.98819 6.58275L7.13351 8.03822C7.039 8.14587 6.94682 8.25562 6.85703 8.36737L5.22499 7.4923C5.14062 7.44706 5.05907 7.55659 5.12661 7.62445L6.4326 8.93656C6.35114 9.05445 6.27221 9.17422 6.19586 9.29578L4.47416 8.61644C4.38511 8.58131 4.31683 8.69957 4.39179 8.75912L5.84044 9.91008C5.77319 10.0367 5.70864 10.1649 5.64687 10.2948L3.85892 9.82016C3.76639 9.79559 3.7123 9.92098 3.79366 9.97143L5.36555 10.9461C5.31354 11.0796 5.26439 11.2146 5.21815 11.3509L3.38757 11.0872C3.29282 11.0735 3.25365 11.2043 3.34032 11.245L5.01495 12.0306C4.97898 12.1692 4.94597 12.3089 4.91599 12.4498L3.06651 12.4003C2.97081 12.3977 2.94709 12.5322 3.0379 12.5625L4.79356 13.1489C4.77405 13.2904 4.75755 13.4328 4.74415 13.5762L2.90006 13.7418C2.80471 13.7504 2.79677 13.8867 2.89048 13.9063L4.70348 14.2851C4.70194 14.3565 4.70117 14.4282 4.70117 14.5C4.70117 14.5718 4.70194 14.6434 4.70348 14.7149L2.89048 15.0936C2.79677 15.1132 2.80471 15.2495 2.90006 15.2581L4.74415 15.4238C4.75755 15.5671 4.77405 15.7096 4.79356 15.8511L3.0379 16.4374C2.94709 16.4677 2.97081 16.6022 3.06651 16.5997L4.91599 16.5502C4.94597 16.691 4.97898 16.8308 5.01495 16.9693L3.34032 17.755C3.25365 17.7956 3.29282 17.9265 3.38757 17.9128L5.21815 17.649C5.26439 17.7854 5.31354 17.9203 5.36554 18.0539L3.79366 19.0285C3.7123 19.079 3.76639 19.2044 3.85892 19.1798L5.64687 18.7052C5.70864 18.835 5.77319 18.9633 5.84043 19.0899L4.39179 20.2408C4.31683 20.3004 4.38511 20.4187 4.47416 20.3835L6.19586 19.7042C6.27221 19.8257 6.35114 19.9455 6.4326 20.0634L5.12661 21.3755C5.05907 21.4434 5.14062 21.5529 5.22499 21.5077L6.85703 20.6326C6.94682 20.7443 7.039 20.8541 7.13351 20.9617L5.98819 22.4172C5.92899 22.4924 6.0227 22.5918 6.10125 22.537L7.62096 21.4782C7.72297 21.5788 7.82718 21.6771 7.93351 21.7732L6.96488 23.3518C6.91481 23.4334 7.01942 23.5212 7.09108 23.4577L8.47726 22.2299C8.59021 22.3181 8.70514 22.4038 8.82198 22.487L8.04347 24.1668C8.00321 24.2536 8.1173 24.3287 8.18111 24.2573L9.41471 22.8776C9.53716 22.9521 9.66137 23.024 9.78727 23.0932L9.20937 24.851C9.17947 24.9419 9.3015 25.0032 9.35659 24.9249L10.4211 23.4121C10.5514 23.4719 10.6833 23.5288 10.8166 23.5829L10.4468 25.3952C10.4277 25.489 10.556 25.5357 10.6016 25.4515L11.4832 23.8256C11.6195 23.8697 11.7571 23.9109 11.896 23.949L11.7391 25.792C11.731 25.8874 11.8638 25.9189 11.8994 25.83L12.5865 24.1121C12.7268 24.1398 12.8682 24.1646 13.0105 24.1863L13.0687 26.0362C13.0717 26.1319 13.2073 26.1478 13.2323 26.0553L13.7157 24.2679C13.858 24.2791 14.001 24.2874 14.1449 24.2925L14.4176 26.1244C14.4317 26.2191 14.5683 26.2191 14.5824 26.1244L14.8551 24.2925C14.999 24.2874 15.142 24.2791 15.2843 24.2679L15.7677 26.0553C15.7927 26.1478 15.9283 26.1319 15.9313 26.0362L15.9895 24.1863C16.1318 24.1646 16.2732 24.1398 16.4135 24.1121L17.1006 25.83C17.1362 25.9189 17.269 25.8874 17.2609 25.792L17.104 23.949C17.2429 23.9109 17.3805 23.8697 17.5168 23.8256L18.3984 25.4515C18.444 25.5357 18.5723 25.489 18.5532 25.3952L18.1834 23.583C18.3167 23.5288 18.4486 23.4719 18.5789 23.4121L19.6434 24.9249C19.6985 25.0032 19.8205 24.9419 19.7906 24.8509L19.2127 23.0932C19.3386 23.024 19.4628 22.9521 19.5853 22.8776L20.8189 24.2573C20.8827 24.3287 20.9968 24.2536 20.9565 24.1668L20.178 22.487C20.2949 22.4038 20.4098 22.3181 20.5227 22.2299L21.9089 23.4577C21.9806 23.5212 22.0852 23.4334 22.0351 23.3518L21.0665 21.7732C21.1728 21.6771 21.277 21.5788 21.379 21.4782L22.8987 22.537C22.9773 22.5918 23.071 22.4924 23.0118 22.4172L21.8665 20.9617C21.961 20.8541 22.0532 20.7443 22.143 20.6326L23.775 21.5077C23.8594 21.5529 23.9409 21.4434 23.8734 21.3755L22.5674 20.0634C22.6489 19.9455 22.7278 19.8257 22.8041 19.7042L24.5258 20.3835C24.6149 20.4187 24.6832 20.3004 24.6082 20.2408L23.1596 19.0899C23.2268 18.9633 23.2914 18.835 23.3531 18.7052L25.1411 19.1798C25.2336 19.2044 25.2877 19.079 25.2063 19.0285L23.6345 18.0539C23.6865 17.9203 23.7356 17.7854 23.7818 17.649L25.6124 17.9128C25.7072 17.9265 25.7463 17.7956 25.6597 17.755L23.985 16.9693C24.021 16.8308 24.054 16.691 24.084 16.5502L25.9335 16.5997C26.0292 16.6022 26.0529 16.4677 25.9621 16.4374L24.2064 15.8511C24.226 15.7096 24.2424 15.5671 24.2559 15.4238L26.0999 15.2581C26.1953 15.2495 26.2032 15.1132 26.1095 15.0936L24.2965 14.7149C24.2981 14.6434 24.2988 14.5718 24.2988 14.5C24.2988 14.4282 24.2981 14.3565 24.2965 14.2851L26.1095 13.9063C26.2032 13.8867 26.1953 13.7504 26.0999 13.7418L24.2559 13.5762C24.2424 13.4328 24.226 13.2904 24.2064 13.1489L25.9621 12.5625C26.0529 12.5322 26.0292 12.3977 25.9335 12.4003L24.084 12.4498C24.054 12.3089 24.021 12.1692 23.985 12.0306L25.6597 11.245C25.7463 11.2043 25.7072 11.0735 25.6124 11.0872L23.7818 11.3509C23.7356 11.2146 23.6865 11.0796 23.6345 10.9461L25.2063 9.97143C25.2877 9.92098 25.2336 9.79559 25.1411 9.82015L23.3531 10.2948C23.2914 10.1649 23.2268 10.0367 23.1596 9.91007L24.6082 8.75912C24.6832 8.69957 24.6149 8.58131 24.5258 8.61644L22.8041 9.29577C22.7278 9.17421 22.6489 9.05445 22.5674 8.93656L23.8734 7.62445C23.9409 7.55659 23.8594 7.44706 23.775 7.4923L22.143 8.36737C22.0532 8.25561 21.961 8.14587 21.8665 8.03822L23.0118 6.58275C23.071 6.50752 22.9773 6.40819 22.8987 6.46292L21.379 7.52174C21.277 7.42117 21.1728 7.32281 21.0665 7.22676L22.0351 5.64813C22.0852 5.56653 21.9806 5.47875 21.9089 5.54223L20.5227 6.77002C20.4098 6.68189 20.2949 6.59618 20.178 6.51297L20.9565 4.8332C20.9968 4.74634 20.8827 4.67131 20.8189 4.74267L19.5853 6.12234C19.4628 6.04785 19.3386 5.97597 19.2127 5.90678L19.7906 4.14901C19.8205 4.05806 19.6985 3.99678 19.6434 4.07507L18.5789 5.58783C18.4486 5.52809 18.3167 5.47113 18.1834 5.41701L18.5532 3.6048C18.5723 3.51099 18.444 3.46429 18.3984 3.54845L17.5168 5.17433C17.3805 5.13027 17.2429 5.08911 17.104 5.05093L17.2609 3.20792C17.269 3.11253 17.1362 3.08104 17.1006 3.16993L16.4135 4.88788C16.2732 4.86012 16.1318 4.83534 15.9895 4.81363L15.9313 2.96375C15.9283 2.86806 15.7927 2.85221 15.7677 2.94462L15.2843 4.73208C15.142 4.72082 14.999 4.71259 14.8551 4.70747L14.5824 2.87558ZM8.40604 8.29158C9.08821 7.62678 10.1724 7.88815 10.6553 8.70918L13.4905 13.5294C13.7985 14.053 13.7985 14.7023 13.4905 15.2259L10.5641 20.2012C10.0765 21.0302 8.97766 21.2863 8.30027 20.6035C6.73957 19.0304 5.77734 16.8761 5.77734 14.5C5.77734 12.0706 6.78316 9.87317 8.40604 8.29158ZM15.8475 14.898C15.2546 14.898 14.706 15.2117 14.4054 15.7228L11.4641 20.7235C10.9755 21.554 11.2878 22.6407 12.2163 22.8983C12.9779 23.1096 13.7812 23.2226 14.6112 23.2226C18.7468 23.2226 22.2186 20.4165 23.1804 16.6274C23.415 15.7028 22.6389 14.898 21.6851 14.898H15.8475ZM21.6204 13.8573C22.5928 13.8573 23.3744 13.0214 23.1028 12.0876C22.043 8.4436 18.6424 5.77732 14.6112 5.77732C13.8334 5.77732 13.0792 5.87656 12.3607 6.06291C11.419 6.30715 11.0948 7.40393 11.588 8.24248L14.4054 13.0325C14.706 13.5435 15.2546 13.8573 15.8475 13.8573H21.6204ZM14.5054 14.9674C14.7713 14.9674 14.9868 14.7519 14.9868 14.486C14.9868 14.2201 14.7713 14.0045 14.5054 14.0045C14.2395 14.0045 14.0239 14.2201 14.0239 14.486C14.0239 14.7519 14.2395 14.9674 14.5054 14.9674Z" fill="url(#paint3_linear)"/>
</g>
<path d="M49.2188 14.6719C49.2188 14.5312 49.1562 14.3984 49.0469 14.2891L45.2109 10.4609C45.0859 10.3359 44.9609 10.2891 44.8281 10.2891C44.5469 10.2891 44.3281 10.5 44.3281 10.7812C44.3281 10.9141 44.375 11.0469 44.4688 11.1406L45.7969 12.4844L47.7266 14.25L46.3281 14.1641H38.9766C38.6875 14.1641 38.4766 14.375 38.4766 14.6719C38.4766 14.9688 38.6875 15.1797 38.9766 15.1797H46.3281L47.7266 15.0859L45.7969 16.8516L44.4688 18.2031C44.3828 18.2891 44.3281 18.4219 44.3281 18.5625C44.3281 18.8438 44.5469 19.0469 44.8281 19.0469C44.9609 19.0469 45.0859 19 45.1953 18.8906L49.0469 15.0469C49.1562 14.9375 49.2188 14.8125 49.2188 14.6719Z" fill="white"/>
<path d="M59 7C59 3.13401 62.134 0 66 0H81C84.866 0 88 3.13401 88 7V22C88 25.866 84.866 29 81 29H66C62.134 29 59 25.866 59 22V7Z" fill="#FE2C55"/>
<path d="M64.1463 12.1219C64.4095 12.2234 64.7454 12.1035 64.8725 11.7528C66.3338 7.60044 69.8283 5.53348 73.3772 5.53348C74.9928 5.53348 76.2636 5.86567 77.3437 6.49314C77.6523 6.67769 77.9972 6.67769 78.1333 6.37318C78.2786 6.05022 78.1152 5.84722 77.8883 5.69958C76.5086 4.82296 75.1108 4.5 73.3772 4.5C69.2746 4.5 65.5532 6.72383 63.8831 11.2453C63.7106 11.7067 63.8831 12.0296 64.1463 12.1219ZM83.0256 15.4715C83.3161 15.4715 83.5248 15.2316 83.4976 14.9086C83.0892 11.153 81.8729 8.78156 79.7762 6.91761C79.513 6.67769 79.1953 6.75151 79.041 6.93606C78.8686 7.12984 78.8504 7.43435 79.1227 7.68349C80.9108 9.38135 82.2087 11.5775 82.5173 14.9271C82.5536 15.2316 82.7352 15.4715 83.0256 15.4715ZM65.5986 20.2975C65.771 20.5374 66.1159 20.602 66.3701 20.3805C67.0236 19.8177 67.3504 18.9134 67.3504 17.9722C67.3504 16.6988 66.8058 16.0528 66.8058 14.4657C66.8058 10.8485 69.7647 7.84036 73.3228 7.84036C77.616 7.84036 80.3843 11.4114 80.3934 16.6803C80.3934 18.738 80.0576 20.196 79.7218 21.0357C79.6038 21.3217 79.7127 21.6262 79.9487 21.7554C80.2028 21.8662 80.5568 21.7739 80.6657 21.4694C81.0197 20.4913 81.41 18.8857 81.41 16.6711C81.41 10.7932 78.2241 6.80688 73.3228 6.80688C69.202 6.80688 65.7892 10.2856 65.7892 14.4657C65.7892 15.979 66.3519 17.0033 66.361 17.9629C66.361 18.5904 66.1341 19.1902 65.7075 19.5685C65.4897 19.7531 65.4534 20.0853 65.5986 20.2975ZM69.683 17.0125C69.4561 16.385 69.084 15.5915 69.084 14.5211C69.084 12.0666 70.9628 10.1565 73.3772 10.1565C74.303 10.1565 74.5935 10.258 75.4013 10.6547C75.6827 10.7839 75.9368 10.7009 76.0367 10.4979C76.1728 10.2395 76.1002 9.92577 75.7916 9.74122C75.1925 9.38135 74.2758 9.11375 73.3772 9.11375C70.4001 9.11375 68.0583 11.4944 68.0583 14.5211C68.0583 15.6837 68.3669 16.6249 68.6846 17.4093C68.8117 17.7138 69.084 17.8614 69.4107 17.723C69.683 17.6123 69.7829 17.317 69.683 17.0125ZM76.8263 11.8912C77.7067 13.1923 78.1424 14.9917 78.1424 17.1694C78.1424 19.4947 77.5071 21.6908 76.5177 22.9458C76.3543 23.1672 76.3362 23.481 76.5359 23.684C76.7537 23.887 77.1258 23.8778 77.3074 23.6286C78.4147 22.1061 79.1409 19.6885 79.1409 17.1325C79.1409 14.3365 78.5509 12.6756 77.7249 11.3376C77.5343 11.0423 77.2166 10.95 76.9625 11.0884C76.6992 11.2361 76.6176 11.5775 76.8263 11.8912ZM69.6467 23.2318C71.1353 22.0138 71.9522 20.076 71.9431 17.926C71.934 16.302 71.3622 15.2962 71.3622 14.4103C71.3622 13.2477 72.17 12.4726 73.35 12.4726C75.1653 12.4726 75.7553 14.5764 75.8097 17.0679C75.8914 19.9468 74.8658 22.3829 73.5224 23.5825C73.3046 23.767 73.2592 24.0531 73.4044 24.2838C73.5769 24.5329 73.9309 24.579 74.1669 24.3576C75.5828 23.0473 76.7809 20.1683 76.7628 16.994C76.7537 13.8936 75.8914 11.4391 73.35 11.4391C71.6617 11.4391 70.3638 12.5833 70.3638 14.3181C70.3638 15.3608 70.9084 16.6434 70.9175 17.926C70.9265 19.7531 70.2549 21.3956 69.0114 22.4198C68.7663 22.6228 68.73 22.9181 68.8843 23.1488C69.0749 23.4164 69.4017 23.4441 69.6467 23.2318ZM64.5457 17.6215C64.8089 17.5385 64.936 17.2616 64.8634 16.9479C64.6365 16.0159 64.5003 15.0286 64.5457 13.7367C64.5548 13.3953 64.3732 13.2108 64.1009 13.1923C63.747 13.1646 63.5563 13.3861 63.5291 13.6721C63.4474 14.7148 63.5291 15.9606 63.8831 17.2432C63.9739 17.5569 64.2643 17.7138 64.5457 17.6215ZM74.2395 18.9041C74.4936 17.6584 74.3938 16.0621 73.949 14.6779C73.831 14.3365 73.5678 14.1889 73.2864 14.2812C73.0232 14.3734 72.8598 14.6226 72.9597 14.9455C73.3772 16.2835 73.4498 17.6031 73.2411 18.7657C73.1866 19.0425 73.2955 19.3101 73.6132 19.3563C73.9037 19.4116 74.176 19.2363 74.2395 18.9041ZM67.7407 22.0138C68.4123 21.6632 69.3291 20.4636 69.5832 19.5131C69.6558 19.2548 69.5378 18.941 69.2564 18.8488C69.0023 18.7565 68.73 18.9134 68.6302 19.2086C68.3851 20.0207 67.9585 20.6297 67.2868 21.091C66.9601 21.3217 66.9147 21.6078 67.0145 21.82C67.1234 22.0507 67.4139 22.1799 67.7407 22.0138ZM71.7707 23.97C72.4877 23.4441 73.3772 22.2353 73.7221 21.0541C73.7857 20.8511 73.7403 20.5097 73.4498 20.4082C73.1412 20.2975 72.878 20.4544 72.7963 20.6943C72.3334 21.9308 71.7616 22.6597 71.1535 23.1396C70.9265 23.3241 70.863 23.6286 71.0173 23.8685C71.1625 24.1269 71.5165 24.1638 71.7707 23.97Z" fill="white"/>
<path d="M97.125 22.375L100.969 8.77344H99.9531L96.1172 22.375H97.125Z" fill="white"/>
<path d="M110 7C110 3.13401 113.134 0 117 0H132C135.866 0 139 3.13401 139 7V22C139 25.866 135.866 29 132 29H117C113.134 29 110 25.866 110 22V7Z" fill="#35C759"/>
<g clip-path="url(#clip0)">
<path d="M124.45 21.6103C125.21 21.6103 125.953 21.4557 126.68 21.1466C127.406 20.8374 128.041 20.4112 128.584 19.8681C128.659 19.7929 128.715 19.7051 128.753 19.6049C128.791 19.5046 128.809 19.3876 128.809 19.2539C128.809 19.02 128.73 18.8278 128.571 18.6774C128.413 18.5269 128.221 18.4517 127.995 18.4517C127.778 18.4517 127.561 18.5645 127.344 18.7902C127.01 19.1495 126.584 19.4398 126.066 19.6613C125.548 19.8827 125.009 19.9934 124.45 19.9934C123.924 19.9934 123.404 19.8848 122.89 19.6675C122.377 19.4503 121.936 19.1578 121.569 18.7902C121.468 18.6982 121.37 18.6189 121.274 18.552C121.178 18.4852 121.055 18.4517 120.905 18.4517C120.671 18.4517 120.477 18.5269 120.322 18.6773C120.168 18.8278 120.09 19.0199 120.09 19.2539C120.09 19.3709 120.109 19.4774 120.147 19.5735C120.184 19.6696 120.245 19.7636 120.328 19.8556C120.838 20.4321 121.462 20.8687 122.201 21.1654C122.94 21.462 123.69 21.6103 124.45 21.6103ZM119.003 12.8169C119.295 12.8169 119.537 12.7229 119.729 12.5349C119.921 12.3469 120.017 12.1024 120.017 11.8016V10.0845C120.017 9.79199 119.921 9.55175 119.729 9.36374C119.537 9.17573 119.295 9.08173 119.003 9.08173C118.71 9.08173 118.47 9.17573 118.282 9.36374C118.094 9.55175 118 9.79199 118 10.0845V11.8016C118 12.1024 118.094 12.3469 118.282 12.5349C118.47 12.7229 118.71 12.8169 119.003 12.8169ZM123.523 16.7749C123.54 16.7749 123.556 16.7749 123.573 16.7749C123.59 16.7749 123.611 16.7749 123.636 16.7749C124.262 16.7749 124.742 16.6057 125.076 16.2673C125.41 15.9289 125.577 15.4463 125.577 14.8196V10.8714C125.577 10.629 125.504 10.4327 125.358 10.2823C125.212 10.1319 125.018 10.0567 124.776 10.0567C124.525 10.0567 124.325 10.1319 124.174 10.2823C124.024 10.4327 123.949 10.629 123.949 10.8714V14.9324C123.949 14.9909 123.932 15.0369 123.899 15.0703C123.865 15.1037 123.819 15.1204 123.761 15.1204H123.335C123.101 15.1204 122.907 15.1956 122.752 15.346C122.598 15.4964 122.521 15.6845 122.521 15.9101C122.521 16.1858 122.608 16.3989 122.784 16.5493C122.959 16.6997 123.205 16.7749 123.523 16.7749ZM130.01 12.8169C130.294 12.8169 130.53 12.7229 130.718 12.5349C130.905 12.3469 130.999 12.1024 130.999 11.8016V10.0845C130.999 9.79199 130.905 9.55175 130.718 9.36374C130.53 9.17573 130.294 9.08173 130.01 9.08173C129.709 9.08173 129.465 9.17573 129.277 9.36374C129.089 9.55175 128.995 9.79199 128.995 10.0845V11.8016C128.995 12.1024 129.089 12.3469 129.277 12.5349C129.465 12.7229 129.709 12.8169 130.01 12.8169Z" fill="white"/>
<path opacity="0.5" d="M134.985 9.97167C135.662 9.97167 136 9.62907 136 8.94387V6.87303C136 5.5862 135.672 4.61898 135.017 3.97139C134.361 3.3238 133.378 3 132.066 3H129.997C129.321 3 128.983 3.33424 128.983 4.00273C128.983 4.32861 129.07 4.57929 129.246 4.75477C129.421 4.93025 129.672 5.01798 129.997 5.01798H132.029C132.647 5.01798 133.127 5.18302 133.47 5.51308C133.812 5.84314 133.983 6.33406 133.983 6.98583V8.94387C133.983 9.62907 134.317 9.97167 134.985 9.97167ZM116.934 26H118.99C119.675 26 120.017 25.6658 120.017 24.9973C120.017 24.6714 119.93 24.4207 119.754 24.2453C119.579 24.0698 119.324 23.982 118.99 23.982H116.959C116.332 23.982 115.852 23.817 115.518 23.487C115.184 23.1569 115.017 22.666 115.017 22.0142V20.0562C115.017 19.371 114.679 19.0284 114.002 19.0284C113.334 19.0284 113 19.371 113 20.0562V22.1145C113 23.4097 113.328 24.3811 113.983 25.0287C114.639 25.6762 115.622 26 116.934 26ZM129.997 26H132.066C133.378 26 134.361 25.6762 135.017 25.0286C135.672 24.381 136 23.4097 136 22.1145V20.0562C136 19.371 135.662 19.0284 134.985 19.0284C134.66 19.0284 134.411 19.1161 134.24 19.2916C134.069 19.4671 133.983 19.7219 133.983 20.0562V22.0142C133.983 22.666 133.812 23.1569 133.47 23.4869C133.127 23.817 132.647 23.982 132.029 23.982H129.997C129.321 23.982 128.983 24.3205 128.983 24.9973C128.983 25.6658 129.321 26 129.997 26ZM114.002 9.97167C114.336 9.97167 114.589 9.88184 114.76 9.70218C114.931 9.52253 115.017 9.26976 115.017 8.94388V6.98584C115.017 6.33407 115.184 5.84315 115.518 5.51309C115.852 5.18302 116.332 5.01799 116.959 5.01799H118.99C119.675 5.01799 120.017 4.67957 120.017 4.00273C120.017 3.33425 119.675 3.00001 118.99 3.00001H116.934C115.622 3.00001 114.639 3.32381 113.983 3.9714C113.328 4.61899 113 5.58621 113 6.87304V8.94388C113 9.62908 113.334 9.97167 114.002 9.97167Z" fill="white"/>
</g>
<path d="M159.219 14.6719C159.219 14.5312 159.156 14.3984 159.047 14.2891L155.211 10.4609C155.086 10.3359 154.961 10.2891 154.828 10.2891C154.547 10.2891 154.328 10.5 154.328 10.7812C154.328 10.9141 154.375 11.0469 154.469 11.1406L155.797 12.4844L157.727 14.25L156.328 14.1641H148.977C148.688 14.1641 148.477 14.375 148.477 14.6719C148.477 14.9688 148.688 15.1797 148.977 15.1797H156.328L157.727 15.0859L155.797 16.8516L154.469 18.2031C154.383 18.2891 154.328 18.4219 154.328 18.5625C154.328 18.8438 154.547 19.0469 154.828 19.0469C154.961 19.0469 155.086 19 155.195 18.8906L159.047 15.0469C159.156 14.9375 159.219 14.8125 159.219 14.6719Z" fill="white"/>
<defs>
<filter id="filter0_d" x="2.40781" y="2.80457" width="24.1844" height="24.2236" filterUnits="userSpaceOnUse" color-interpolation-filters="sRGB">
<feFlood flood-opacity="0" result="BackgroundImageFix"/>
<feColorMatrix in="SourceAlpha" type="matrix" values="0 0 0 0 0 0 0 0 0 0 0 0 0 0 0 0 0 0 127 0" result="hardAlpha"/>
<feOffset dy="0.41641"/>
<feGaussianBlur stdDeviation="0.208205"/>
<feColorMatrix type="matrix" values="0 0 0 0 0 0 0 0 0 0 0 0 0 0 0 0 0 0 0.45 0"/>
<feBlend mode="normal" in2="BackgroundImageFix" result="effect1_dropShadow"/>
<feBlend mode="normal" in="SourceGraphic" in2="effect1_dropShadow" result="shape"/>
</filter>
<linearGradient id="paint0_linear" x1="14.5" y1="0" x2="14.5" y2="27.5" gradientUnits="userSpaceOnUse">
<stop stop-color="#EAE9EC"/>
<stop offset="1" stop-color="#8F8E93"/>
</linearGradient>
<linearGradient id="paint1_linear" x1="14.5" y1="0" x2="14.5" y2="29" gradientUnits="userSpaceOnUse">
<stop stop-color="#EAEAEA"/>
<stop offset="1" stop-color="#8F8F93"/>
</linearGradient>
<linearGradient id="paint2_linear" x1="14.5" y1="7.24998" x2="14.5" y2="21.7499" gradientUnits="userSpaceOnUse">
<stop stop-color="#B4B4B8"/>
<stop offset="1" stop-color="#B4B4B8"/>
</linearGradient>
<linearGradient id="paint3_linear" x1="14.5095" y1="2.97613" x2="14.6397" y2="26.2096" gradientUnits="userSpaceOnUse">
<stop offset="0.193294" stop-color="#D4D4D8"/>
<stop offset="0.830878" stop-color="#9D9DA1"/>
</linearGradient>
<clipPath id="clip0">
<rect width="23" height="23" fill="white" transform="translate(113 3)"/>
</clipPath>
</defs>
</svg>
