<?xml version="1.0" standalone="no"?>
<!DOCTYPE svg PUBLIC "-//W3C//DTD SVG 20010904//EN"
 "http://www.w3.org/TR/2001/REC-SVG-20010904/DTD/svg10.dtd">
<svg version="1.0" xmlns="http://www.w3.org/2000/svg"
 width="512.000000pt" height="512.000000pt" viewBox="0 0 512.000000 512.000000"
 preserveAspectRatio="xMidYMid meet">
<metadata>
Created by potrace 1.14, written by Peter Selinger 2001-2017
</metadata>
<g transform="translate(0.000000,512.000000) scale(0.100000,-0.100000)"
fill="#000000" stroke="none">
<path d="M1278 4771 c-262 -152 -480 -279 -483 -283 -3 -3 244 -353 549 -779
306 -425 554 -774 553 -775 -1 -1 -423 41 -937 92 -514 51 -941 94 -947 94
-10 0 -13 -120 -13 -568 l0 -568 928 93 c510 51 936 92 948 90 17 -2 -73 -133
-532 -772 -423 -589 -550 -773 -541 -781 16 -16 937 -546 957 -551 12 -3 105
196 404 856 214 474 392 861 396 861 3 0 181 -387 395 -861 214 -473 391 -862
395 -863 6 -3 979 557 979 564 1 3 -248 351 -552 775 -459 639 -550 770 -533
772 12 2 438 -39 949 -90 l927 -93 0 568 c0 448 -3 568 -12 568 -7 0 -434 -43
-948 -94 -514 -51 -936 -93 -937 -92 -2 1 247 350 553 776 305 425 551 776
547 780 -12 11 -946 548 -963 554 -12 4 -103 -189 -405 -859 -214 -476 -392
-865 -395 -865 -3 0 -180 390 -395 865 -214 476 -394 864 -400 864 -5 -1 -225
-126 -487 -278z"/>
</g>
</svg>
