<svg width="380" height="49" viewBox="0 0 380 49" fill="none" xmlns="http://www.w3.org/2000/svg">
<g clip-path="url(#clip0_621_6035)">
<path opacity="0.3" d="M32.0755 11.4917H10.1292V18.2444H32.0755C34.0923 18.2444 35.9027 19.1286 37.14 20.5305V16.5562C37.14 13.7592 34.8726 11.4917 32.0755 11.4917Z" fill="white"/>
<path opacity="0.6" d="M32.0755 19.9326H10.1292V26.6853H32.0755C34.0923 26.6853 35.9027 27.5695 37.14 28.9714V24.9972C37.14 22.2001 34.8726 19.9326 32.0755 19.9326Z" fill="white"/>
<path d="M10.1292 28.3735H32.0755C34.8726 28.3735 37.14 30.641 37.14 33.4381C37.14 36.2351 34.8726 38.5026 32.0755 38.5026H10.1292V28.3735Z" fill="white"/>
</g>
<path d="M51.8272 35.9971H73.4359C79.3783 35.9971 82.8222 33.4986 82.8222 29.4807C82.8222 26.7796 81.2691 24.8888 78.3992 23.9772C80.7289 22.9306 82.0119 21.1411 82.0119 18.7776C82.0119 14.8611 78.6355 12.3625 72.6931 12.3625H51.8272V35.9971ZM71.005 17.6972C72.6931 17.6972 73.6385 18.4062 73.6385 19.723C73.6385 21.1073 72.6931 21.7826 71.005 21.7826H60.3694V17.6972H71.005ZM71.6127 26.7121C73.3009 26.7121 74.28 27.4211 74.28 28.7717C74.28 30.156 73.3009 30.8312 71.6127 30.8312H60.3694V26.7121H71.6127ZM93.7548 36.4698C97.0974 36.4698 99.8322 35.3218 101.757 33.2285V35.9971H110.096V17.0219H101.757V29.1431C100.744 30.3923 99.0219 31.1689 97.0974 31.1689C94.4976 31.1689 92.573 29.7508 92.573 26.8134V17.0219H84.2334V27.9276C84.2334 33.1947 88.15 36.4698 93.7548 36.4698ZM125.227 36.5711C132.926 36.5711 137.686 33.7011 137.686 29.8183C137.686 24.9901 131.507 24.4162 126.409 24.0448C122.83 23.8084 119.792 23.6734 119.792 22.289C119.792 21.5125 121.007 20.8372 123.809 20.8372C126.882 20.8372 128.806 21.58 129.752 23.302H137.416C135.964 18.8114 130.731 16.4142 123.641 16.4142C116.381 16.4142 111.823 19.0815 111.823 23.0656C111.823 28.0626 118.373 28.5015 123.539 28.8392C126.882 29.0418 129.65 29.2443 129.65 30.6287C129.65 31.5065 128.435 32.2831 125.092 32.2831C122.223 32.2831 120.163 31.2702 119.488 29.582H111.756C113.14 34.1738 118.306 36.5711 125.227 36.5711ZM139.5 15.5701H147.772V11.2146H139.5V15.5701ZM139.5 35.9971H147.772V17.0219H139.5V35.9971ZM149.984 35.9971H158.324V23.8759C159.337 22.6267 161.025 21.8501 162.983 21.8501C165.583 21.8501 167.507 23.2682 167.507 26.2056V35.9971H175.813V25.0914C175.813 19.8243 171.93 16.5492 166.359 16.5492C163.017 16.5492 160.248 17.6972 158.324 19.8581V17.0219H149.984V35.9971ZM191.044 36.6386C197.831 36.6386 202.929 33.4986 204.448 28.9742H196.48C195.568 30.7637 193.644 31.7429 191.179 31.7429C188.073 31.7429 185.912 30.1222 185.473 27.4886H204.718V27.1172C204.718 20.4658 198.573 16.3804 191.112 16.3804C183.413 16.3804 177.471 20.5671 177.471 26.5095C177.471 32.4857 183.278 36.6386 191.044 36.6386ZM191.112 21.1411C193.61 21.1411 195.568 22.3228 196.446 24.2811H185.811C186.621 22.3228 188.512 21.1411 191.112 21.1411ZM219.297 36.5711C226.995 36.5711 231.756 33.7011 231.756 29.8183C231.756 24.9901 225.577 24.4162 220.479 24.0448C216.9 23.8084 213.861 23.6734 213.861 22.289C213.861 21.5125 215.077 20.8372 217.879 20.8372C220.952 20.8372 222.876 21.58 223.822 23.302H231.486C230.034 18.8114 224.801 16.4142 217.71 16.4142C210.451 16.4142 205.893 19.0815 205.893 23.0656C205.893 28.0626 212.443 28.5015 217.609 28.8392C220.952 29.0418 223.72 29.2443 223.72 30.6287C223.72 31.5065 222.505 32.2831 219.162 32.2831C216.292 32.2831 214.233 31.2702 213.558 29.582H205.826C207.21 34.1738 212.376 36.5711 219.297 36.5711ZM246.335 36.5711C254.033 36.5711 258.793 33.7011 258.793 29.8183C258.793 24.9901 252.615 24.4162 247.516 24.0448C243.937 23.8084 240.899 23.6734 240.899 22.289C240.899 21.5125 242.114 20.8372 244.917 20.8372C247.989 20.8372 249.914 21.58 250.859 23.302H258.523C257.071 18.8114 251.838 16.4142 244.748 16.4142C237.489 16.4142 232.93 19.0815 232.93 23.0656C232.93 28.0626 239.481 28.5015 244.646 28.8392C247.989 29.0418 250.758 29.2443 250.758 30.6287C250.758 31.5065 249.542 32.2831 246.2 32.2831C243.33 32.2831 241.27 31.2702 240.595 29.582H232.863C234.247 34.1738 239.413 36.5711 246.335 36.5711ZM268.915 42.1758H277.255V32.8571C279.179 35.153 282.218 36.4698 285.797 36.4698C292.482 36.4698 297.141 32.3168 297.141 26.5095C297.141 20.6346 292.516 16.5492 285.797 16.5492C282.218 16.5492 279.179 17.866 277.255 20.1619V17.0219H268.915V42.1758ZM283.163 31.5065C279.584 31.5065 277.187 29.5482 277.187 26.5095C277.187 23.4708 279.584 21.5462 283.163 21.5462C286.675 21.5462 289.038 23.4708 289.038 26.5095C289.038 29.5482 286.675 31.5065 283.163 31.5065ZM306.925 36.4698C310.639 36.4698 313.644 35.5244 315.737 33.5999V35.9971H323.942V24.8888C323.942 19.4191 319.789 16.4479 312.125 16.4479C305.169 16.4479 299.936 19.6217 298.754 24.0448H306.351C306.959 22.3566 308.782 21.1411 311.787 21.1411C314.353 21.1411 315.67 21.8839 315.67 22.863C315.67 24.0448 313.711 24.5512 310.605 24.9226C305.271 25.5979 298.214 25.9018 298.214 30.9325C298.214 34.2076 301.658 36.4698 306.925 36.4698ZM306.216 30.5949C306.216 29.0418 308.444 28.7041 311.112 28.3327C312.867 28.0626 314.623 27.86 315.737 27.2523V30.1897C314.252 31.5403 311.753 32.2831 309.525 32.2831C307.296 32.2831 306.216 31.5065 306.216 30.5949ZM339.02 36.5711C346.718 36.5711 351.478 33.7011 351.478 29.8183C351.478 24.9901 345.3 24.4162 340.201 24.0448C336.622 23.8084 333.584 23.6734 333.584 22.289C333.584 21.5125 334.799 20.8372 337.602 20.8372C340.674 20.8372 342.599 21.58 343.544 23.302H351.208C349.756 18.8114 344.523 16.4142 337.433 16.4142C330.174 16.4142 325.615 19.0815 325.615 23.0656C325.615 28.0626 332.166 28.5015 337.331 28.8392C340.674 29.0418 343.443 29.2443 343.443 30.6287C343.443 31.5065 342.227 32.2831 338.885 32.2831C336.015 32.2831 333.955 31.2702 333.28 29.582H325.548C326.932 34.1738 332.098 36.5711 339.02 36.5711ZM366.057 36.5711C373.755 36.5711 378.516 33.7011 378.516 29.8183C378.516 24.9901 372.337 24.4162 367.239 24.0448C363.66 23.8084 360.621 23.6734 360.621 22.289C360.621 21.5125 361.836 20.8372 364.639 20.8372C367.711 20.8372 369.636 21.58 370.581 23.302H378.246C376.794 18.8114 371.56 16.4142 364.47 16.4142C357.211 16.4142 352.653 19.0815 352.653 23.0656C352.653 28.0626 359.203 28.5015 364.369 28.8392C367.711 29.0418 370.48 29.2443 370.48 30.6287C370.48 31.5065 369.264 32.2831 365.922 32.2831C363.052 32.2831 360.992 31.2702 360.317 29.582H352.585C353.97 34.1738 359.135 36.5711 366.057 36.5711Z" fill="white"/>
<defs>
<clipPath id="clip0_621_6035">
<rect width="27.0109" height="27.0109" fill="white" transform="translate(10.1292 11.4917)"/>
</clipPath>
</defs>
</svg>