<svg width="96" height="31" viewBox="0 0 96 31" fill="none" xmlns="http://www.w3.org/2000/svg">
<path fill-rule="evenodd" clip-rule="evenodd" d="M96 0.140259V22.6588H82.963V30.9551H0V0.140259H96ZM64.2961 27.383C65.6046 27.383 66.6665 26.3211 66.6665 25.0127V17.2141L62.676 13.2201V4.86451C62.676 4.21265 62.1462 3.67932 61.4908 3.67932H59.2662C58.6108 3.67932 58.081 4.21265 58.081 4.86451V25.0127C58.081 26.3211 59.1429 27.383 60.4514 27.383H64.2961ZM76.6576 27.383C77.9649 27.383 79.028 26.3211 79.028 25.0127H79.0268V19.6023C79.0268 18.9469 79.5566 18.4171 80.212 18.4171H90.081C91.3895 18.4171 92.4514 17.3552 92.4514 16.0467V6.04969C92.4514 4.74125 91.3895 3.67932 90.081 3.67932H72.5687C71.2603 3.67932 70.1983 4.74125 70.1983 6.04969V25.0127C70.1983 26.3211 71.2603 27.383 72.5687 27.383H76.6576ZM75.9738 13.821C75.3184 13.821 74.7886 13.29 74.7886 12.6358V9.45947C74.7886 8.80762 75.3184 8.27428 75.9738 8.27428H86.6618C87.3172 8.27428 87.8469 8.80762 87.8469 9.45947V12.6358C87.8469 13.29 87.3172 13.821 86.6618 13.821H75.9738ZM47.4144 4.86451C47.4144 4.21028 47.9441 3.67932 48.5995 3.67932H50.8229C51.4784 3.67932 52.0081 4.21028 52.0081 4.86451V26.1978C52.0081 26.8532 51.4784 27.383 50.8229 27.383H48.5995C47.9441 27.383 47.4144 26.8532 47.4144 26.1978V20.6832C47.4144 19.3747 46.3512 18.3128 45.044 18.3128H40.7133C39.4049 18.3128 38.3429 19.3747 38.3429 20.6832V25.0127C38.3429 26.3211 37.281 27.383 35.9726 27.383H32.0069C30.6973 27.383 29.6366 26.3211 29.6366 25.0127V4.86451C29.6366 4.21028 30.1664 3.67932 30.8218 3.67932H33.0452C33.6994 3.67932 34.2304 4.21028 34.2304 4.86451V11.3475C34.2304 12.6547 35.2923 13.7178 36.6007 13.7178H45.044C46.3512 13.7178 47.4144 12.6547 47.4144 11.3475V4.86451ZM23.2034 27.383C24.5118 27.383 25.5738 26.3211 25.5738 25.0127V21.0162C25.5738 20.3608 25.0428 19.831 24.3886 19.831H22.164C21.5086 19.831 20.9788 20.3608 20.9788 21.0162V21.6005C20.9788 22.2595 20.4455 22.7857 19.7936 22.7857H14.5195C13.2111 22.7857 12.1492 21.7273 12.1492 20.4153V17.2106L8.15746 13.2201V10.6435C8.15746 9.33503 9.21939 8.2731 10.5278 8.2731H19.7924C20.4466 8.2731 20.9776 8.80406 20.9776 9.45828V10.6435C20.9776 11.2029 21.4315 11.6556 21.9921 11.6556H24.3886C25.0428 11.6556 25.5738 11.1258 25.5738 10.4704V6.04969C25.5738 4.74006 24.5118 3.67932 23.2034 3.67932H5.93287C4.62443 3.67932 3.5625 4.74006 3.5625 6.04969V25.0127C3.5625 26.3211 4.62443 27.383 5.93287 27.383H23.2034Z" fill="#27215B"/>
</svg>
