<svg width="96" height="44" viewBox="0 0 96 44" fill="none" xmlns="http://www.w3.org/2000/svg">
<g clip-path="url(#clip0_701_5917)">
<path d="M17.5359 0H39.5519V43.52H17.5359V0Z" fill="#27215B"/>
<path d="M19.584 28.416V41.344H22.656C24.576 41.344 25.728 40.704 25.728 38.4V38.016V37.248C25.728 35.2 25.088 34.56 23.808 34.432V34.304C25.472 33.92 25.728 33.152 25.728 31.872V30.848C25.728 28.928 24.32 28.288 22.656 28.288L19.584 28.416ZM26.112 28.416V30.336H28.416V28.416H26.112ZM29.184 28.416V41.344H31.488V28.416H29.184ZM35.2 28.416V31.872C35.072 31.232 34.432 30.848 33.792 30.848C32.384 30.848 32.256 32 32.256 33.152V39.168C32.256 40.32 32.384 41.472 33.792 41.472C34.432 41.472 35.072 40.96 35.2 40.192V41.344H37.504V28.288L35.2 28.416ZM22.144 30.208H22.4C22.784 30.208 23.04 30.336 23.04 30.976V32.896C23.04 33.536 22.912 33.664 22.4 33.664H22.144V30.208ZM26.112 30.976V41.344H28.416V30.976H26.112ZM34.816 32.64C35.072 32.64 35.2 32.896 35.2 33.152V39.04C35.2 39.296 35.072 39.552 34.816 39.552C34.56 39.552 34.432 39.296 34.432 39.04V33.152C34.432 32.896 34.56 32.64 34.816 32.64ZM22.144 35.328H22.4C22.784 35.328 23.04 35.456 23.04 35.968V38.016V38.784C23.04 39.296 22.912 39.424 22.4 39.424H22.144V35.328Z" fill="white"/>
<path d="M7.424 4.35199C2.176 4.35199 0.896 6.14399 0.384 8.31999C0.384 8.44799 0.256 8.70399 0.256 8.95999C0.256 9.34399 0.256 9.59999 0.128 9.98399C0 11.264 0 12.928 0 14.592V16.896C0 17.792 0 18.56 0.128 19.2C0.128 19.584 0.256 19.968 0.256 20.352C0.384 20.736 0.512 21.12 0.64 21.504C0.896 21.888 1.152 22.272 1.536 22.656C2.176 23.168 2.944 23.552 3.968 23.808C4.864 23.936 5.888 24.064 7.168 24.064C8.448 24.064 9.472 24.064 10.368 23.808C11.392 23.552 12.16 23.168 12.8 22.656C13.184 22.4 13.44 22.016 13.696 21.504C13.824 21.888 14.08 22.272 14.464 22.656C14.976 23.168 15.872 23.552 16.896 23.808C17.536 23.936 18.432 23.936 19.328 23.936C20.224 23.936 21.12 23.936 21.76 23.808C22.784 23.552 23.68 23.168 24.192 22.656C24.576 22.272 24.832 21.888 24.96 21.504C25.088 21.12 25.216 20.736 25.216 20.352V23.808H30.464V17.024V14.72V13.824C30.464 12.928 30.72 12.416 31.232 12.416C31.616 12.416 31.744 12.8 31.744 12.928V23.808H37.12V14.08C37.12 12.8 37.248 12.416 37.76 12.288C38.272 12.288 38.272 12.8 38.272 13.312V23.68H43.648V28.16H48.896V23.68H49.024C49.536 23.808 50.176 23.808 50.944 23.808C51.712 23.808 52.352 23.808 52.864 23.68C53.76 23.424 54.4 23.04 54.784 22.528C55.168 22.144 55.296 21.76 55.424 21.376C55.552 20.992 55.552 20.736 55.552 20.608C55.552 20.864 55.68 21.12 55.68 21.376C55.808 21.76 55.936 22.144 56.192 22.528C56.576 23.04 57.216 23.424 57.984 23.68C58.368 23.808 58.88 23.808 59.392 23.808C60.032 23.808 60.672 23.808 61.184 23.68C61.568 23.552 62.08 23.424 62.336 23.296V23.68H67.584V12.288H68.096V21.12V21.504C68.096 21.888 68.224 22.272 68.352 22.656C68.608 23.296 69.12 23.552 69.76 23.808C70.144 23.936 70.656 23.936 71.168 23.936C72.192 23.936 73.088 23.936 74.88 23.808H75.008V22.656C75.776 23.296 76.672 23.68 77.824 23.808C78.592 23.936 79.232 23.936 80.128 23.936C80.896 23.936 81.664 23.936 82.432 23.808C83.456 23.68 84.224 23.296 84.992 22.656C85.248 22.4 85.632 22.016 85.76 21.504C85.888 21.12 86.016 20.736 86.144 20.352C86.144 20.224 86.144 19.968 86.144 19.84V20.352V23.808H91.52V15.104C91.52 14.976 91.52 14.848 91.52 14.72C91.648 13.696 92.416 13.056 94.08 13.056C94.464 13.056 95.488 13.056 96 13.184V8.83199C95.872 8.83199 95.616 8.83199 95.36 8.83199C94.976 8.83199 94.592 8.83199 94.336 8.83199H93.696C92.672 8.95999 91.904 9.21599 91.136 9.72799V9.08799H86.016V13.312C85.888 11.904 85.504 10.752 84.608 10.112C83.84 9.47199 82.816 9.21599 81.28 9.08799H78.72C77.312 9.21599 76.16 9.47199 75.392 10.24C75.264 10.368 75.136 10.496 74.88 10.624V9.08799H73.344V5.50399H67.968V9.08799H62.208V19.072C62.208 19.456 62.08 19.968 61.568 20.224C61.44 20.352 61.312 20.352 61.056 20.48C60.928 20.48 60.8 20.352 60.672 20.224C60.544 20.096 60.544 19.968 60.544 19.84V19.2V9.08799H55.168V12.8C55.04 11.648 54.912 10.752 54.272 10.112C53.632 9.47199 53.12 9.08799 51.84 8.95999C51.712 8.95999 51.456 8.95999 51.2 8.95999C51.072 8.95999 50.816 8.95999 50.688 8.95999C49.92 8.95999 49.28 9.08799 48.768 9.34399V9.08799H43.52V11.264C43.392 10.752 43.264 10.368 42.88 9.98399C42.24 9.34399 41.216 8.95999 40.064 8.95999H38.912C37.888 8.95999 36.992 9.34399 36.096 9.85599C35.584 9.34399 34.048 8.83199 32.768 8.95999C31.488 8.95999 30.848 9.21599 30.208 9.47199V9.08799H25.216V12.544C25.088 11.392 24.576 10.624 23.808 9.98399C22.784 9.34399 21.376 8.95999 19.328 8.95999C17.536 8.95999 16 9.08799 14.72 9.98399C14.464 10.24 14.336 10.368 14.08 10.624C14.08 10.496 14.08 10.24 14.08 9.98399C14.08 9.72799 14.08 9.34399 14.08 8.95999C13.824 6.65599 12.928 4.35199 7.424 4.35199ZM7.04 7.55199C8.192 7.55199 8.576 8.19199 8.704 8.95999C8.704 9.21599 8.832 9.47199 8.832 9.72799V9.98399V10.624V11.264H13.824C13.568 11.904 13.44 12.544 13.44 13.312V14.464V16.128H8.576V16.768C8.576 17.152 8.704 17.664 8.704 18.048C8.704 18.304 8.704 18.688 8.576 18.944C8.576 19.2 8.448 19.328 8.448 19.584C8.32 19.712 8.192 19.968 8.064 20.096C7.808 20.352 7.552 20.48 7.04 20.48C6.912 20.48 6.784 20.48 6.656 20.48C6.528 20.48 6.528 20.352 6.4 20.224C6.272 19.968 6.144 19.456 6.016 19.072V18.944C6.016 18.304 5.888 17.536 5.888 16.768C5.888 16 5.888 15.36 5.888 14.464C5.888 14.208 5.888 14.08 5.888 13.824C5.888 12.544 5.888 11.008 6.016 9.85599C6.016 9.47199 6.016 9.08799 6.144 8.70399C6.144 8.57599 6.144 8.57599 6.144 8.44799C6.272 8.19199 6.4 7.80799 6.656 7.55199H7.04ZM80.256 11.776C80.768 11.904 81.024 12.288 81.024 12.672V14.464H79.36V12.8C79.36 12.416 79.616 11.904 80.256 11.776ZM19.2 12.032C19.712 12.032 19.968 12.416 19.968 13.44V19.072V19.328C19.968 19.712 19.968 19.968 19.84 20.224C19.712 20.736 19.456 20.864 19.072 20.864C18.688 20.864 18.56 20.736 18.304 20.224C18.304 20.096 18.304 19.712 18.304 19.328V13.44C18.432 12.416 18.816 12.032 19.2 12.032ZM49.664 12.16C50.048 12.288 50.304 12.544 50.304 13.696V14.592V16.896V18.816V19.072C50.304 19.584 50.176 19.968 50.048 20.224C49.92 20.48 49.792 20.48 49.664 20.608C49.536 20.608 49.408 20.48 49.28 20.352C49.152 20.096 49.024 19.712 48.896 19.2C48.896 19.072 48.896 19.072 48.896 18.944C48.896 18.304 48.896 17.664 48.896 17.024V14.72V13.824C48.896 12.672 49.28 12.288 49.664 12.16ZM73.6 12.288H74.24C74.112 13.056 73.984 13.824 73.984 14.592V14.72V16.896V18.688V19.2C73.984 19.584 73.984 19.968 74.112 20.352C74.112 20.48 74.112 20.608 74.24 20.736C74.112 20.736 73.984 20.864 73.856 20.864C73.728 20.864 73.6 20.608 73.6 20.352V20.224V19.2V16.896V14.592V12.288ZM79.36 17.28H85.632H86.144V17.92H85.632H81.536H80.896C80.896 17.92 81.024 18.816 81.024 19.2V19.328C81.024 19.712 81.024 20.096 80.896 20.352C80.768 20.608 80.512 20.864 80.256 20.864C79.872 20.736 79.616 20.608 79.488 20.352C79.36 20.096 79.36 19.84 79.36 19.712V19.072V17.28Z" fill="white"/>
<path d="M7.16796 4.86401C2.55996 4.86401 1.40796 6.65601 0.895963 8.57601C0.639963 9.34401 0.511963 11.904 0.511963 13.952C0.511963 16 0.511963 17.408 0.639963 19.072C0.895963 22.016 2.55996 23.424 6.91196 23.424C11.264 23.424 13.056 22.016 13.056 18.944V16.64H9.21596V16.768C9.21596 17.152 9.34396 17.664 9.34396 18.048C9.34396 18.56 9.34396 19.328 8.95996 19.84C8.70396 20.48 8.19196 20.992 7.16796 20.992C5.37596 20.992 4.99196 19.968 4.99196 18.816C4.86396 17.408 4.86396 15.744 4.86396 13.824C4.86396 11.776 4.99196 9.47201 5.11996 8.44801C5.11996 7.55201 5.75996 7.04001 7.03996 7.04001C9.08796 7.04001 9.21596 8.70401 9.21596 9.72801V10.752V10.88H13.184V10.24C13.312 7.04001 12.16 4.86401 7.16796 4.86401ZM68.736 6.01601V9.72801H67.584V11.776H68.736V21.12C68.736 22.784 69.632 23.296 71.296 23.424C72.192 23.424 73.216 23.424 73.984 23.296V21.248C73.984 21.248 73.344 21.376 72.832 21.248C72.576 21.12 72.32 20.736 72.32 20.224V11.776H73.856V9.60001H72.32V6.01601H68.736ZM94.976 9.34401C92.16 9.34401 91.264 10.24 90.496 12.032H90.24V9.60001H86.784V23.168H90.496V14.976C90.496 13.312 91.648 12.416 93.824 12.416H94.848H94.976V9.34401ZM50.944 9.34401C49.152 9.34401 48 10.368 47.744 10.624V9.60001H44.16V19.84V27.776H47.872V22.4C48.128 22.784 49.024 23.424 50.816 23.424C52.736 23.424 53.632 22.656 54.144 21.632C54.272 21.248 54.4 20.352 54.528 19.712C54.528 19.584 54.528 19.456 54.528 19.328C54.528 18.816 54.528 14.08 54.528 13.44C54.528 12.8 54.4 11.776 54.144 11.264C53.632 10.24 52.864 9.34401 50.944 9.34401ZM80 9.34401C75.008 9.34401 74.496 11.648 74.496 14.592V17.536V18.56C74.496 21.632 75.264 23.296 80 23.296C84.352 23.296 85.12 21.504 85.12 18.816V18.432H81.536V19.328C81.536 19.712 81.536 20.224 81.28 20.608C81.024 20.992 80.64 21.376 80 21.376C78.848 21.376 78.336 20.48 78.336 19.84V17.664V16.768H85.12V14.208C85.12 11.136 83.84 9.34401 80 9.34401ZM39.296 9.47201C36.992 9.47201 35.84 10.88 35.84 10.88C35.328 9.98401 34.304 9.47201 33.024 9.47201C30.72 9.47201 29.824 10.368 29.44 10.752L29.312 9.60001H25.728V23.168H29.44V13.824C29.44 12.672 29.952 11.904 30.976 11.904C31.744 11.904 32.256 12.416 32.256 12.928V23.296H35.968V14.08C35.968 12.672 36.224 11.776 37.376 11.776C38.656 11.776 38.656 12.672 38.656 13.312V23.168H42.368V11.904C42.496 10.24 41.088 9.47201 39.296 9.47201ZM18.944 9.47201C15.232 9.47201 13.696 10.88 13.696 13.44V17.664V19.328C13.696 21.888 15.232 23.296 18.944 23.296C22.784 23.296 24.192 21.888 24.192 19.328C24.192 18.816 24.192 18.176 24.192 17.664C24.192 16.256 24.192 14.848 24.192 13.44C24.192 10.88 22.656 9.47201 18.944 9.47201ZM62.976 9.60001V19.072C62.976 19.84 62.464 20.992 61.056 20.992C60.288 20.992 59.776 20.48 59.776 19.84V9.60001H56.064V20.352C56.064 21.76 56.96 23.296 59.264 23.296C61.44 23.296 62.592 22.528 63.104 21.76V23.168H66.688V9.60001H62.976ZM79.872 11.264C81.152 11.264 81.408 12.16 81.408 12.8V14.976H78.208V12.8C78.336 12.032 78.592 11.264 79.872 11.264ZM18.944 11.52C19.968 11.52 20.48 11.904 20.48 13.44V17.664V19.328C20.48 20.992 19.968 21.376 18.944 21.376C17.92 21.376 17.408 20.992 17.408 19.328V17.664C17.408 16.256 17.408 14.72 17.408 13.44C17.408 11.904 18.048 11.52 18.944 11.52ZM49.408 11.648C50.176 11.648 50.944 11.904 50.944 13.696V18.816V19.712C50.816 20.608 50.176 21.12 49.536 21.12C48.896 21.12 48.384 20.608 48.128 19.712C48 19.456 48 19.2 48 18.816V13.696C47.872 12.16 48.64 11.648 49.408 11.648Z" fill="#27215B"/>
</g>
<defs>
<clipPath id="clip0_701_5917">
<rect width="96" height="43.52" fill="white"/>
</clipPath>
</defs>
</svg>
