<svg width="96" height="42" viewBox="0 0 96 42" fill="none" xmlns="http://www.w3.org/2000/svg">
<rect width="96" height="41.0954" fill="#27215B"/>
<path d="M19.0303 26.7453C19.0303 21.139 23.6078 16.6129 29.2398 16.6129C34.8717 16.6129 39.4492 21.1648 39.4492 26.7453C39.4492 32.3515 34.8717 36.8776 29.2398 36.8776C23.6078 36.9033 19.0303 32.3515 19.0303 26.7453Z" fill="white"/>
<path d="M27.7739 19.0817C28.0311 17.9245 29.7027 17.3073 31.4514 17.7187C33.2258 18.1302 34.4088 19.4675 34.1259 20.5476C33.843 21.7048 32.2229 22.322 30.4742 21.9105C28.6997 21.5248 27.491 20.239 27.7739 19.0817ZM24.6879 19.7246C25.2023 17.4873 28.1339 16.33 31.6057 17.0501C34.7174 17.693 37.1347 20.1875 36.5947 22.4249C36.0804 24.6622 33.0201 25.948 29.7027 25.1765C26.3595 24.405 24.1479 21.962 24.6879 19.7246ZM30.217 18.6188C29.0597 17.693 27.131 16.9729 25.4337 17.3844Z" fill="white"/>
<path d="M38.8835 30.1913C37.289 33.5601 32.4286 35.4374 27.5425 34.2545C22.0391 32.9429 18.5417 28.6997 19.3132 24.6365M35.206 35.0003C33.0972 36.1832 30.1913 36.5947 27.2081 35.9261C23.1964 35.026 20.3933 32.3257 19.4932 29.5226M39.3978 25.4851C39.3721 26.0252 39.3207 26.7195 39.2692 26.9253C38.3434 30.7827 33.4573 32.9687 28.2368 31.7857C22.9906 30.6027 19.4932 26.3081 20.3675 22.5534C20.4961 21.962 20.7019 21.2933 21.0362 20.779M37.6234 20.9847C38.292 22.142 38.6263 23.5821 38.3434 24.7394C37.5976 27.8511 33.3801 29.5484 28.8797 28.5454C24.405 27.5425 21.4733 24.1993 22.142 20.959C22.322 20.0589 23.0421 19.0817 23.7621 18.4131C23.9679 18.2331 24.1736 18.0273 24.405 17.8473M31.0656 20.1875C31.0656 24.7136 30.4742 34.1002 28.854 36.9033M31.3742 20.1875C32.4543 23.2735 34.3574 33.1487 31.9143 36.569M31.6828 20.1618C33.6373 22.9392 37.4176 31.7343 34.5631 35.4374M31.9143 20.0589C35.1803 23.0421 38.9349 29.5741 37.1347 33.2001M32.2743 19.4932C34.7174 19.9561 37.4176 21.0104 38.9606 23.685M32.1457 19.9304C35.7975 22.0134 39.7321 26.951 38.7035 30.6284M32.2486 19.7246C35.1031 20.8304 38.6263 22.8106 39.4492 26.9767M32.1457 19.236C33.9202 19.1589 36.1832 19.6218 37.8291 21.2676M31.9143 19.0303C33.123 18.7217 35.0003 18.696 36.3118 19.5189M31.6828 18.8503C32.5572 18.2845 33.8173 18.0016 34.7431 18.2588M31.4257 18.7217C31.8886 18.0016 32.6343 17.5387 33.2515 17.4616M31.1685 18.6445C31.3742 18.0016 31.3742 17.2301 31.2199 16.8186M30.8856 18.5931C30.7313 17.7702 30.1913 16.9215 29.5226 16.6129M30.5513 18.5674C29.8827 17.693 29.0083 16.8701 27.671 16.7415M29.8827 18.7988C28.3397 18.0788 25.7166 17.513 23.1706 18.6702M29.7284 19.0046C27.5167 18.5159 23.4278 18.2331 20.8819 21.0104M29.7027 19.2617C26.0252 19.1846 20.8562 20.3161 19.416 24.225M29.8055 19.4932C25.0222 20.3418 19.2103 23.3507 19.1074 27.5939M29.9598 19.6989C26.2052 21.139 19.6989 25.2537 19.7246 30.2941M30.1913 19.8532C26.3852 22.4506 20.3675 28.9826 21.3448 33.0972M30.4484 20.0075C27.8253 23.3249 22.9906 31.3485 23.4792 35.0774M30.7313 20.1104C29.5741 23.3764 26.4367 32.6858 26.0766 36.3375M30.217 18.6188C29.0597 17.693 27.131 16.9729 25.4337 17.3844M27.7739 19.0817C28.0311 17.9245 29.7027 17.3073 31.4514 17.7187C33.2258 18.1302 34.4088 19.4675 34.1259 20.5476C33.843 21.7048 32.2229 22.322 30.4742 21.9105C28.6997 21.5248 27.491 20.239 27.7739 19.0817ZM24.6879 19.7246C25.2023 17.4873 28.1339 16.33 31.6057 17.0501C34.7174 17.693 37.1347 20.1875 36.5947 22.4249C36.0804 24.6622 33.0201 25.948 29.7027 25.1765C26.3595 24.405 24.1479 21.962 24.6879 19.7246Z" stroke="#27215B" stroke-width="0.4" stroke-miterlimit="3.8637" stroke-linecap="round"/>
<path fill-rule="evenodd" clip-rule="evenodd" d="M4.11462 36.6461H14.2727V34.6145H11.2896V25.2022H15.1213V27.8253H17.1529V20.9333H15.1213V23.3506H11.2896V15.8414H18.9274V18.3359H20.959V13.3983H4.11462V15.4299H6.60913V34.6145H4.11462V36.6461ZM79.0527 36.6461H80.5957L81.1101 35.5146C82.6788 36.6204 84.1189 36.8775 85.5848 36.8775C89.7251 36.8775 91.8853 34.4859 91.8853 30.6799C91.8853 24.0964 81.5987 24.9708 81.5987 20.8304C81.5987 19.5703 82.8331 18.3873 84.7618 18.3873C86.8192 18.413 89.0822 19.956 89.0822 22.3734H90.7795V17.2301H89.2622L89.1336 18.3616C88.2078 17.4873 86.0991 16.9986 84.4532 16.9986C81.6758 16.9986 78.8213 18.5673 78.8213 22.5534C78.8213 29.6512 88.645 27.9025 88.645 32.66C88.645 34.6145 86.8963 35.5146 85.3533 35.5146C82.6273 35.5146 80.7243 33.3544 80.7243 31.3742H79.027V36.6461H79.0527ZM57.9394 17.2558H56.3964L55.9335 18.9788C54.4163 17.4615 52.4104 17.0501 50.4302 17.0501C44.6182 17.0501 40.9665 21.8076 40.9665 27.0024C40.9665 32.1971 44.3096 36.9547 51.0217 36.9547C53.079 36.9547 55.5992 36.6461 58.5566 33.5344V33.3029L57.5022 32.1971H57.2708C55.8307 34.203 53.9791 35.4117 51.8189 35.4117C47.9357 35.4117 45.4155 31.8114 45.4155 27.2338C45.4155 23.2735 46.6756 18.7731 50.9702 18.7731C53.7733 18.7731 55.7021 20.4189 56.2421 22.9392H57.9137V17.2558H57.9394ZM59.4053 18.9788H61.4883V30.0884C61.4883 35.1545 65.5515 37.0061 69.2033 36.9804C74.2695 36.929 76.0439 34.023 76.0439 29.6512V18.9788H78.1269V17.2558H72.4179V18.9788H74.5009V29.2654C74.5009 34.1773 72.2121 35.2574 69.7176 35.2574C67.326 35.2574 65.423 34.023 65.423 30.6541V18.9788H67.506V17.2558H59.4053V18.9788Z" fill="white"/>
<path fill-rule="evenodd" clip-rule="evenodd" d="M75.2468 13.3983V8.97506C75.2468 8.61502 75.1954 8.22928 75.1182 7.81781L75.0411 7.4835C75.2982 8.04926 75.3497 8.20356 75.4783 8.38358L75.7611 8.89791L76.0183 9.38652L78.5128 13.424H80.8016V4.26892H78.5128V6.96916C78.5128 7.71494 78.59 8.51216 78.7443 9.3608C78.5128 8.87219 78.1785 8.22928 77.7927 7.61208L75.6583 4.26892H73.0095V13.3983H75.2468ZM82.1903 8.92362C82.1903 11.701 83.9647 13.5526 86.6392 13.5526C87.9508 13.5526 88.928 13.1669 89.7252 12.3182C90.2396 11.7782 90.4453 11.3924 90.7796 10.4152L88.3623 10.2352C88.1822 11.1867 87.6422 11.6753 86.7421 11.6753C85.6877 11.6753 84.9934 10.9038 84.9934 9.72084C84.9934 9.59225 85.0191 9.46367 85.0191 9.30937H90.8311C90.8053 7.61208 90.6768 7.0206 90.0853 6.06908C89.5967 5.19472 88.7223 4.57752 87.6936 4.32036H85.3791C83.4504 4.78325 82.1903 6.53198 82.1903 8.92362ZM86.6907 5.83763C87.6679 5.83763 88.1051 6.37768 88.208 7.71494H85.0191C85.1477 6.42912 85.6877 5.83763 86.6907 5.83763ZM66.7603 13.3983V11.161H64.0087V4.26892H61.1798V13.3983H66.7603ZM68.0976 4.26892H70.9264V13.3983H68.0976V4.26892ZM40.9923 8.84647C40.9923 11.6496 42.741 13.5526 45.3384 13.5526C47.9358 13.5526 49.6845 11.6239 49.6845 8.76932C49.6845 6.42912 48.5016 4.78325 46.5985 4.29464H44.1555C42.201 4.75754 40.9923 6.45483 40.9923 8.84647ZM45.3641 6.19767C46.2385 6.19767 46.65 6.96916 46.65 8.58931V8.84647C46.6242 9.59225 46.5471 10.2095 46.4442 10.5952C46.2899 11.1352 45.8785 11.4696 45.3127 11.4696C44.4126 11.4696 43.9754 10.6466 43.9754 8.92362C43.9754 7.14918 44.464 6.19767 45.3641 6.19767ZM53.5934 13.3983V8.97506C53.5934 8.61502 53.542 8.22928 53.4649 7.81781L53.3877 7.4835C53.6449 8.04926 53.6963 8.20356 53.7992 8.38358L54.0821 8.89791L54.3392 9.38652L56.8337 13.424H59.1225V4.26892H56.8337V6.96916C56.8337 7.71494 56.9109 8.51216 57.0652 9.3608C56.8337 8.87219 56.4994 8.22928 56.1137 7.61208L53.9792 4.26892H51.3304V13.3983H53.5934Z" fill="white"/>
<path fill-rule="evenodd" clip-rule="evenodd" d="M89.0823 4.91184C88.388 4.39751 87.5136 4.11462 86.5364 4.11462C85.5592 4.11462 84.6848 4.39751 84.0162 4.91184H89.0823ZM47.9615 4.91184C47.2414 4.39751 46.3671 4.11462 45.3384 4.11462C44.3355 4.11462 43.4354 4.39751 42.741 4.91184H47.9615Z" fill="white"/>
</svg>
