<svg width="96" height="35" viewBox="0 0 96 35" fill="none" xmlns="http://www.w3.org/2000/svg">
<path fill-rule="evenodd" clip-rule="evenodd" d="M48.0661 5.35318C49.7115 5.35318 51.1542 5.90479 52.6016 6.49884L54.445 2.34994C54.161 2.24721 53.8912 2.1478 53.632 2.05228C51.6188 1.31048 50.2429 0.803528 47.8162 0.803528C43.4268 0.803528 39.6881 3.75491 39.6881 9.28992V13.882H36.5953V17.8188H39.6881V33.528H45.6191V17.8188H50.5082V13.882H45.6191V9.19563C45.6191 6.29611 46.8167 5.35318 48.0661 5.35318ZM90.069 20.7607V33.528L96.0001 33.5327V20.2185C96.0001 16.0413 93.6569 13.1465 89.6683 13.1465C87.5063 13.1465 85.532 14.3086 83.6811 15.3981C83.3968 15.5654 83.1154 15.731 82.8367 15.8905V13.882H77.0518V33.528H82.9876V19.615C84.1333 19.0681 87.0233 17.9696 88.2209 17.9696C89.2675 17.9696 90.069 18.3704 90.069 20.7607ZM32.4322 13.9386H26.5483V33.5893H32.4322V13.9386ZM67.0473 33.528V31.5337C66.7686 31.6931 66.4873 31.8587 66.203 32.0261C64.352 33.1156 62.3778 34.2776 60.2158 34.2776C56.2272 34.2776 53.884 31.3828 53.884 27.2057V13.882H59.815V26.6446C59.815 29.0397 60.6165 29.4404 61.6632 29.4404C62.8607 29.4404 65.7508 28.2947 66.8964 27.7431V13.882H72.8322V33.528H67.0473ZM19.4858 20.9917C19.4795 19.1202 18.7317 17.3275 17.4061 16.0063C16.0805 14.6851 14.2853 13.9433 12.4138 13.9433H0.0189209V26.3759C0.0189105 28.2474 0.760755 30.0426 2.08192 31.3682C3.40308 32.6938 5.19582 33.4416 7.06734 33.4479H19.5046L19.4858 20.9917ZM26.5483 4.78743H32.4228V10.6619H26.5483V4.78743Z" fill="#27215B"/>
</svg>
