<svg width="48" height="48" viewBox="0 0 48 48" fill="none" xmlns="http://www.w3.org/2000/svg">
<path fill-rule="evenodd" clip-rule="evenodd" d="M38 21.9083V34C38 35.1046 37.1046 36 36 36H12C10.8954 36 10 35.1046 10 34V21.9083C10 20.8544 10.8544 20 11.9083 20C13.8838 20 15.7286 19.0127 16.8244 17.369L18.4766 14.8906C18.8476 14.3342 19.472 14 20.1407 14H27.8593C28.528 14 29.1524 14.3342 29.5234 14.8906L31.1756 17.369C32.2714 19.0127 34.1162 20 36.0917 20C37.1456 20 38 20.8544 38 21.9083ZM8 21.9083C8 19.7498 9.74982 18 11.9083 18C13.2151 18 14.4354 17.3469 15.1603 16.2596L16.8125 13.7812C17.5544 12.6684 18.8033 12 20.1407 12H27.8593C29.1967 12 30.4456 12.6684 31.1875 13.7812L32.8397 16.2596C33.5646 17.3469 34.7849 18 36.0917 18C38.2502 18 40 19.7498 40 21.9083V34C40 36.2091 38.2091 38 36 38H12C9.79086 38 8 36.2091 8 34V21.9083ZM30 26C30 29.3137 27.3137 32 24 32C20.6863 32 18 29.3137 18 26C18 22.6863 20.6863 20 24 20C27.3137 20 30 22.6863 30 26ZM32 26C32 30.4183 28.4183 34 24 34C19.5817 34 16 30.4183 16 26C16 21.5817 19.5817 18 24 18C28.4183 18 32 21.5817 32 26Z" fill="#27215B"/>
</svg>
