<svg width="48" height="48" viewBox="0 0 48 48" fill="none" xmlns="http://www.w3.org/2000/svg">
<path fill-rule="evenodd" clip-rule="evenodd" d="M32 2H30C30 2.55228 29.5523 3 29 3H19C18.4477 3 18 2.55228 18 2H16C14.8954 2 14 2.89543 14 4V44C14 45.1046 14.8954 46 16 46H32C33.1046 46 34 45.1046 34 44V4C34 2.89543 33.1046 2 32 2ZM16 0C13.7909 0 12 1.79086 12 4V44C12 46.2091 13.7909 48 16 48H32C34.2091 48 36 46.2091 36 44V4C36 1.79086 34.2091 0 32 0H16ZM19 43.5C18.7239 43.5 18.5 43.7239 18.5 44C18.5 44.2761 18.7239 44.5 19 44.5H29C29.2761 44.5 29.5 44.2761 29.5 44C29.5 43.7239 29.2761 43.5 29 43.5H19Z" fill="#27215B"/>
</svg>
