<svg width="48" height="48" viewBox="0 0 48 48" fill="none" xmlns="http://www.w3.org/2000/svg">
<path fill-rule="evenodd" clip-rule="evenodd" d="M11 17C11 16.4477 11.4477 16.0001 11.9998 16.0002C14.7768 16.0008 17.5545 16.0025 20.3323 16.0042H20.3327C24.7195 16.0069 29.1069 16.0096 33.4935 16.0079C37.0857 16.0065 40 18.9165 40 22.5069C40 26.0929 37.0929 29 33.5069 29H32C31.7348 29 31.4804 29.1054 31.2929 29.2929C31.1054 29.4804 31 29.7348 31 30V31C31 32.6569 29.6569 34 28 34H14C12.3432 34 11 32.6569 11 31L11 17ZM12.0002 14.0002C10.3431 13.9999 9 15.3432 9 17L9.00001 31C9.00002 33.7614 11.2386 36 14 36H28C30.7614 36 33 33.7614 33 31L33.5069 31C38.1975 31 42 27.1975 42 22.5069C42 17.8099 38.188 14.0061 33.4928 14.0079C29.1067 14.0096 24.7214 14.0069 20.3355 14.0042L20.3354 14.0042L20.3351 14.0042C17.5571 14.0025 14.779 14.0008 12.0002 14.0002ZM32 18C31.4477 18 31 18.4477 31 19V26C31 26.5523 31.4477 27 32 27H33.5C35.9853 27 38 24.9853 38 22.5C38 20.0147 35.9853 18 33.5 18H32ZM33 25V20H33.5C34.8807 20 36 21.1193 36 22.5C36 23.8807 34.8807 25 33.5 25H33ZM15.443 20.0134C17.0563 18.6344 19.4427 18.6784 21 20.0501C22.5573 18.6784 24.9437 18.6344 26.557 20.0134C28.3114 21.5132 28.4934 24.1323 26.9531 25.8521L23.2347 30.0038C22.0423 31.3351 19.9577 31.3351 18.7653 30.0038L15.0469 25.8521C13.5066 24.1323 13.6886 21.5132 15.443 20.0134ZM16.7426 21.5337C17.6618 20.7479 19.0639 20.8422 19.8633 21.7348L20.2551 22.1722C20.4448 22.384 20.7157 22.505 21 22.505C21.2843 22.505 21.5552 22.384 21.7449 22.1722L22.1367 21.7348C22.9361 20.8422 24.3382 20.7479 25.2574 21.5337C26.163 22.3078 26.2506 23.6388 25.4633 24.5178L21.7449 28.6694C21.3474 29.1132 20.6526 29.1132 20.2551 28.6694L16.5367 24.5178C15.7494 23.6388 15.837 22.3078 16.7426 21.5337Z" fill="#27215B"/>
</svg>
