<svg width="48" height="48" viewBox="0 0 48 48" fill="none" xmlns="http://www.w3.org/2000/svg">
<path fill-rule="evenodd" clip-rule="evenodd" d="M37.435 9.56497C35.0919 7.22182 31.2929 7.22182 28.9497 9.56497L20.4645 18.0502C18.1213 20.3934 18.1213 24.1924 20.4645 26.5355C20.855 26.9261 21.4882 26.9261 21.8787 26.5355C22.2692 26.145 22.2692 25.5118 21.8787 25.1213C20.3166 23.5592 20.3166 21.0266 21.8787 19.4645L30.364 10.9792C31.9261 9.41708 34.4587 9.41708 36.0208 10.9792C37.5829 12.5413 37.5829 15.0739 36.0208 16.636L32.4853 20.1716C32.0948 20.5621 32.0948 21.1953 32.4853 21.5858C32.8758 21.9763 33.509 21.9763 33.8995 21.5858L37.435 18.0502C39.7782 15.7071 39.7782 11.9081 37.435 9.56497ZM10.565 36.435C12.9081 38.7782 16.7071 38.7782 19.0503 36.435L27.5355 27.9498C29.8787 25.6066 29.8787 21.8076 27.5355 19.4645C27.145 19.0739 26.5119 19.0739 26.1213 19.4645C25.7308 19.855 25.7308 20.4882 26.1213 20.8787C27.6834 22.4408 27.6834 24.9734 26.1213 26.5355L17.636 35.0208C16.0739 36.5829 13.5413 36.5829 11.9792 35.0208C10.4171 33.4587 10.4171 30.9261 11.9792 29.364L15.5147 25.8284C15.9052 25.4379 15.9052 24.8047 15.5147 24.4142C15.1242 24.0237 14.491 24.0237 14.1005 24.4142L10.565 27.9497C8.22183 30.2929 8.22183 34.0919 10.565 36.435Z" fill="#27215B"/>
</svg>
