<svg width="48" height="48" viewBox="0 0 48 48" fill="none" xmlns="http://www.w3.org/2000/svg">
<path fill-rule="evenodd" clip-rule="evenodd" d="M42.7071 6.70711C43.0976 6.31658 43.0976 5.68342 42.7071 5.29289C42.3166 4.90237 41.6834 4.90237 41.2929 5.29289L5.29289 41.2929C4.90237 41.6834 4.90237 42.3166 5.29289 42.7071C5.68342 43.0976 6.31658 43.0976 6.70711 42.7071L42.7071 6.70711ZM37.362 6.39536C37.2407 6.32766 37.118 6.26217 36.9939 6.19893C34.6409 5 31.5606 5 25.4 5H22.6C16.4394 5 13.3591 5 11.0061 6.19893C8.93632 7.25354 7.25354 8.93632 6.19893 11.0061C5 13.3591 5 16.4394 5 22.6V25.4C5 31.5606 5 34.6409 6.19893 36.9939C6.26217 37.118 6.32766 37.2407 6.39536 37.362L7.88009 35.8773C7.50716 35.063 7.27176 34.0351 7.14322 32.4619C7.00156 30.728 7 28.5133 7 25.4V22.6C7 19.4867 7.00156 17.272 7.14322 15.5381C7.28298 13.8275 7.54908 12.7617 7.98094 11.9141C8.8438 10.2206 10.2206 8.8438 11.9141 7.98094C12.7617 7.54908 13.8275 7.28298 15.5381 7.14322C17.272 7.00156 19.4867 7 22.6 7H25.4C28.5133 7 30.728 7.00156 32.4619 7.14322C34.0351 7.27176 35.063 7.50716 35.8773 7.88009L37.362 6.39536ZM41.6046 10.638L40.1199 12.1227C40.4928 12.937 40.7282 13.9649 40.8568 15.5381C40.9984 17.272 41 19.4867 41 22.6V25.4C41 28.5133 40.9984 30.728 40.8568 32.4619C40.717 34.1725 40.4509 35.2383 40.0191 36.0859C39.1562 37.7794 37.7794 39.1562 36.0859 40.0191C35.2383 40.4509 34.1725 40.717 32.4619 40.8568C30.728 40.9984 28.5133 41 25.4 41H22.6C19.4867 41 17.272 40.9984 15.5381 40.8568C13.9649 40.7282 12.937 40.4928 12.1227 40.1199L10.638 41.6046C10.7593 41.6723 10.882 41.7378 11.0061 41.8011C13.3591 43 16.4394 43 22.6 43H25.4C31.5606 43 34.6409 43 36.9939 41.8011C39.0637 40.7465 40.7465 39.0637 41.8011 36.9939C43 34.6409 43 31.5606 43 25.4V22.6C43 16.4394 43 13.3591 41.8011 11.0061C41.7378 10.882 41.6723 10.7593 41.6046 10.638ZM25.2095 18.5478L25.1555 18.4545L26.8654 15.501C27.1421 15.0231 26.979 14.4113 26.501 14.1346C26.0231 13.8579 25.4113 14.021 25.1346 14.499L24 16.4587L22.8654 14.499C22.5887 14.021 21.9769 13.8579 21.499 14.1346C21.021 14.4113 20.8579 15.0231 21.1346 15.501L22.8445 18.4545L19.4643 24.293L25.2095 18.5478ZM15.7574 28H13C12.4477 28 12 28.4477 12 29C12 29.5523 12.4477 30 13 30H13.7574L15.7574 28ZM22.2426 30H29.5287L32.1346 34.501C32.4113 34.979 33.0231 35.1421 33.501 34.8654C33.979 34.5887 34.1421 33.9769 33.8654 33.499L31.8397 30H35C35.5523 30 36 29.5523 36 29C36 28.4477 35.5523 28 35 28H30.6818L28.3208 23.9219L26.8572 25.3855L28.3708 28H24.2426L22.2426 30Z" fill="white"/>
</svg>