<svg width="48" height="48" viewBox="0 0 48 48" fill="none" xmlns="http://www.w3.org/2000/svg">
<path fill-rule="evenodd" clip-rule="evenodd" d="M42.7071 6.70711C43.0976 6.31658 43.0976 5.68342 42.7071 5.29289C42.3166 4.90237 41.6834 4.90237 41.2929 5.29289L5.29289 41.2929C4.90237 41.6834 4.90237 42.3166 5.29289 42.7071C5.68342 43.0976 6.31658 43.0976 6.70711 42.7071L42.7071 6.70711ZM22 10C25.252 10 28.2019 11.2936 30.3631 13.3943L28.9489 14.8084C27.149 13.0692 24.6984 12 22 12C17.0465 12 12.9307 15.6036 12.1381 20.3323C11.9741 21.311 11.1172 22.0214 10.125 22.0013C10.0834 22.0004 10.0418 22 10 22C6.68629 22 4 24.6863 4 28C4 31.234 6.55861 33.8704 9.76199 33.9954L8.00748 35.7499C4.55323 34.8644 2 31.7304 2 28C2 23.5817 5.58172 20 10 20C10.0553 20 10.1106 20.0006 10.1656 20.0017C11.1171 14.3254 16.0534 10 22 10ZM35 34H18.2426L16.2426 36H34H35H36V35.9451C40.5 35.4476 44 31.6326 44 27C44 22.0294 39.9706 18 35 18C34.7332 18 34.4692 18.0116 34.2083 18.0343L32.3649 19.8777C32.7647 20.1095 33.2446 20.2035 33.7285 20.1148C34.1394 20.0396 34.5642 20 35 20C38.866 20 42 23.134 42 27C42 30.6018 39.2781 33.5705 35.7803 33.9572C35.6963 33.9665 35.6141 33.9808 35.5338 34H35Z" fill="white"/>
</svg>