<svg width="48" height="48" viewBox="0 0 48 48" fill="none" xmlns="http://www.w3.org/2000/svg">
<path fill-rule="evenodd" clip-rule="evenodd" d="M42.7071 6.70711C43.0976 6.31658 43.0976 5.68342 42.7071 5.29289C42.3166 4.90237 41.6834 4.90237 41.2929 5.29289L5.29289 41.2929C4.90237 41.6834 4.90237 42.3166 5.29289 42.7071C5.68342 43.0976 6.31658 43.0976 6.70711 42.7071L42.7071 6.70711ZM29.1214 8.30744C30.7527 8.63191 32.3141 9.20677 33.7533 10.0041L32.2732 11.4841C31.1583 10.9253 29.9677 10.5149 28.7313 10.269C26.0155 9.72882 23.2006 10.0061 20.6424 11.0657C18.0843 12.1253 15.8978 13.9197 14.3594 16.222C13.5777 17.3919 12.9813 18.6662 12.5836 20H21C21.5523 20 22 20.4477 22 21C22 21.5523 21.5523 22 21 22H12.1436C12.0484 22.6597 12 23.328 12 24C12 24.672 12.0484 25.3403 12.1436 26H17.7574L15.7574 28H12.5836C12.8165 28.7812 13.1176 29.5419 13.4841 30.2732L12.0041 31.7533C11.3471 30.5673 10.8452 29.3058 10.5081 28H7C6.44772 28 6 27.5523 6 27C6 26.4477 6.44772 26 7 26H10.1255C10.0422 25.339 10 24.6711 10 24C10 23.3289 10.0422 22.661 10.1255 22H7C6.44772 22 6 21.5523 6 21C6 20.4477 6.44772 20 7 20H10.5081C10.9553 18.2681 11.6921 16.614 12.6965 15.1109C14.4546 12.4797 16.9534 10.4289 19.8771 9.21793C22.8007 8.00693 26.0177 7.69007 29.1214 8.30744ZM15.8633 36.3793L17.2855 34.9571C18.3014 35.7651 19.4302 36.4322 20.6424 36.9343C23.2006 37.9939 26.0155 38.2712 28.7313 37.731C31.447 37.1908 33.9416 35.8574 35.8995 33.8995C36.29 33.509 36.9232 33.509 37.3137 33.8995C37.7042 34.29 37.7042 34.9232 37.3137 35.3137C35.0761 37.5514 32.2251 39.0752 29.1214 39.6926C26.0177 40.3099 22.8007 39.9931 19.8771 38.7821C18.4207 38.1788 17.0698 37.3672 15.8633 36.3793Z" fill="white"/>
</svg>