<svg width="48" height="48" viewBox="0 0 48 48" fill="none" xmlns="http://www.w3.org/2000/svg">
<path fill-rule="evenodd" clip-rule="evenodd" d="M24 1.92C18.842 1.92 13.8467 3.72581 9.88106 7.02409C5.91538 10.3224 3.22958 14.9049 2.2897 19.9766C1.34982 25.0483 2.21518 30.2889 4.73563 34.7892C7.09936 39.0097 10.7788 42.3292 15.1992 44.2502L19.9111 31.9724C18.3477 31.1706 17.0477 29.9229 16.1823 28.3776C15.1597 26.5514 14.8086 24.4248 15.1901 22.3668C15.5715 20.3088 16.6615 18.4493 18.2707 17.111C19.8799 15.7726 21.9069 15.0398 24 15.0398C26.0931 15.0398 28.1201 15.7726 29.7293 17.111C31.3385 18.4493 32.4285 20.3088 32.8099 22.3668C33.1914 24.4248 32.8403 26.5514 31.8177 28.3776C30.9523 29.9229 29.6523 31.1706 28.0889 31.9724L32.8008 44.2502C37.2212 42.3292 40.9006 39.0097 43.2644 34.7892C45.7848 30.2889 46.6502 25.0483 45.7103 19.9766C44.7704 14.9049 42.0846 10.3224 38.1189 7.02409C34.1533 3.72581 29.158 1.92 24 1.92ZM8.65332 5.54792C12.9638 1.96284 18.3935 0 24 0C29.6065 0 35.0362 1.96284 39.3467 5.54792C43.6572 9.13301 46.5765 14.1141 47.5982 19.6268C48.6198 25.1394 47.6792 30.8358 44.9395 35.7274C42.1999 40.619 37.8342 44.3971 32.6 46.4062C32.3623 46.4974 32.0981 46.4905 31.8655 46.3869C31.6329 46.2833 31.4509 46.0916 31.3597 45.8539L25.9709 31.8123C25.781 31.3173 26.0282 30.7621 26.5231 30.5721C28.0584 29.9827 29.3389 28.8744 30.1425 27.4395C30.946 26.0047 31.2218 24.3337 30.9221 22.7167C30.6224 21.0997 29.766 19.6387 28.5016 18.5871C27.2372 17.5356 25.6445 16.9598 24 16.9598C22.3555 16.9598 20.7628 17.5356 19.4984 18.5871C18.234 19.6387 17.3776 21.0997 17.0779 22.7167C16.7782 24.3337 17.054 26.0047 17.8576 27.4395C18.6611 28.8744 19.9416 29.9827 21.4769 30.5721C21.9718 30.7621 22.219 31.3173 22.0291 31.8123L16.6403 45.8539C16.5491 46.0916 16.3671 46.2833 16.1345 46.3869C15.9019 46.4905 15.6377 46.4974 15.4 46.4062C10.1658 44.3971 5.80008 40.619 3.06046 35.7274C0.320851 30.8358 -0.619766 25.1394 0.401844 19.6268C1.42345 14.1141 4.34281 9.13301 8.65332 5.54792Z" fill="white"/>
</svg>