<svg width="48" height="48" viewBox="0 0 48 48" fill="none" xmlns="http://www.w3.org/2000/svg">
<path fill-rule="evenodd" clip-rule="evenodd" d="M9 6C7.34315 6 6 7.34315 6 9V12C6 12.5523 5.55228 13 5 13C4.44772 13 4 12.5523 4 12V9C4 6.23858 6.23858 4 9 4H12C12.5523 4 13 4.44772 13 5C13 5.55228 12.5523 6 12 6H9ZM19 11H13C11.8954 11 11 11.8954 11 13V19C11 20.1046 11.8954 21 13 21H19C20.1046 21 21 20.1046 21 19V13C21 11.8954 20.1046 11 19 11ZM13 9C10.7909 9 9 10.7909 9 13V19C9 21.2091 10.7909 23 13 23H19C21.2091 23 23 21.2091 23 19V13C23 10.7909 21.2091 9 19 9H13ZM14 15C14 14.4477 14.4477 14 15 14H17C17.5523 14 18 14.4477 18 15V17C18 17.5523 17.5523 18 17 18H15C14.4477 18 14 17.5523 14 17V15ZM26 25C25.4477 25 25 25.4477 25 26V28C25 28.5523 25.4477 29 26 29H28C28.5523 29 29 28.5523 29 28V26C29 25.4477 28.5523 25 28 25H26ZM26 35C25.4477 35 25 35.4477 25 36V38C25 38.5523 25.4477 39 26 39H28C28.5523 39 29 38.5523 29 38V36C29 35.4477 28.5523 35 28 35H26ZM30 31C30 30.4477 30.4477 30 31 30H33C33.5523 30 34 30.4477 34 31V33C34 33.5523 33.5523 34 33 34H31C30.4477 34 30 33.5523 30 33V31ZM36 35C35.4477 35 35 35.4477 35 36V38C35 38.5523 35.4477 39 36 39H38C38.5523 39 39 38.5523 39 38V36C39 35.4477 38.5523 35 38 35H36ZM35 26C35 25.4477 35.4477 25 36 25H38C38.5523 25 39 25.4477 39 26V28C39 28.5523 38.5523 29 38 29H36C35.4477 29 35 28.5523 35 28V26ZM13 27H19C20.1046 27 21 27.8954 21 29V35C21 36.1046 20.1046 37 19 37H13C11.8954 37 11 36.1046 11 35V29C11 27.8954 11.8954 27 13 27ZM9 29C9 26.7909 10.7909 25 13 25H19C21.2091 25 23 26.7909 23 29V35C23 37.2091 21.2091 39 19 39H13C10.7909 39 9 37.2091 9 35V29ZM15 30C14.4477 30 14 30.4477 14 31V33C14 33.5523 14.4477 34 15 34H17C17.5523 34 18 33.5523 18 33V31C18 30.4477 17.5523 30 17 30H15ZM35 11H29C27.8954 11 27 11.8954 27 13V19C27 20.1046 27.8954 21 29 21H35C36.1046 21 37 20.1046 37 19V13C37 11.8954 36.1046 11 35 11ZM29 9C26.7909 9 25 10.7909 25 13V19C25 21.2091 26.7909 23 29 23H35C37.2091 23 39 21.2091 39 19V13C39 10.7909 37.2091 9 35 9H29ZM30 15C30 14.4477 30.4477 14 31 14H33C33.5523 14 34 14.4477 34 15V17C34 17.5523 33.5523 18 33 18H31C30.4477 18 30 17.5523 30 17V15ZM42 39C42 40.6569 40.6569 42 39 42H35C34.4477 42 34 42.4477 34 43C34 43.5523 34.4477 44 35 44H39C41.7614 44 44 41.7614 44 39V35C44 34.4477 43.5523 34 43 34C42.4477 34 42 34.4477 42 35V39ZM42 9C42 7.34315 40.6569 6 39 6L35 6C34.4477 6 34 5.55228 34 5C34 4.44771 34.4477 4 35 4H39C41.7614 4 44 6.23858 44 9V13C44 13.5523 43.5523 14 43 14C42.4477 14 42 13.5523 42 13V9ZM9 42C7.34315 42 6 40.6569 6 39L6 35C6 34.4477 5.55229 34 5 34C4.44772 34 4 34.4477 4 35V39C4 41.7614 6.23858 44 9 44H13C13.5523 44 14 43.5523 14 43C14 42.4477 13.5523 42 13 42H9Z" fill="#27215B"/>
</svg>
