<svg width="48" height="48" viewBox="0 0 48 48" fill="none" xmlns="http://www.w3.org/2000/svg">
<path fill-rule="evenodd" clip-rule="evenodd" d="M18 8H10C8.89543 8 8 8.89543 8 10V18C8 19.1046 8.89543 20 10 20H18C19.1046 20 20 19.1046 20 18V10C20 8.89543 19.1046 8 18 8ZM10 6C7.79086 6 6 7.79086 6 10V18C6 20.2091 7.79086 22 10 22H18C20.2091 22 22 20.2091 22 18V10C22 7.79086 20.2091 6 18 6H10ZM12 13C12 12.4477 12.4477 12 13 12H15C15.5523 12 16 12.4477 16 13V15C16 15.5523 15.5523 16 15 16H13C12.4477 16 12 15.5523 12 15V13ZM27 26C26.4477 26 26 26.4477 26 27V29C26 29.5523 26.4477 30 27 30H29C29.5523 30 30 29.5523 30 29V27C30 26.4477 29.5523 26 29 26H27ZM27 38C26.4477 38 26 38.4477 26 39V41C26 41.5523 26.4477 42 27 42H29C29.5523 42 30 41.5523 30 41V39C30 38.4477 29.5523 38 29 38H27ZM32 33C32 32.4477 32.4477 32 33 32H35C35.5523 32 36 32.4477 36 33V35C36 35.5523 35.5523 36 35 36H33C32.4477 36 32 35.5523 32 35V33ZM39 38C38.4477 38 38 38.4477 38 39V41C38 41.5523 38.4477 42 39 42H41C41.5523 42 42 41.5523 42 41V39C42 38.4477 41.5523 38 41 38H39ZM38 27C38 26.4477 38.4477 26 39 26H41C41.5523 26 42 26.4477 42 27V29C42 29.5523 41.5523 30 41 30H39C38.4477 30 38 29.5523 38 29V27ZM10 28H18C19.1046 28 20 28.8954 20 30V38C20 39.1046 19.1046 40 18 40H10C8.89543 40 8 39.1046 8 38V30C8 28.8954 8.89543 28 10 28ZM6 30C6 27.7909 7.79086 26 10 26H18C20.2091 26 22 27.7909 22 30V38C22 40.2091 20.2091 42 18 42H10C7.79086 42 6 40.2091 6 38V30ZM13 32C12.4477 32 12 32.4477 12 33V35C12 35.5523 12.4477 36 13 36H15C15.5523 36 16 35.5523 16 35V33C16 32.4477 15.5523 32 15 32H13ZM38 8H30C28.8954 8 28 8.89543 28 10V18C28 19.1046 28.8954 20 30 20H38C39.1046 20 40 19.1046 40 18V10C40 8.89543 39.1046 8 38 8ZM30 6C27.7909 6 26 7.79086 26 10V18C26 20.2091 27.7909 22 30 22H38C40.2091 22 42 20.2091 42 18V10C42 7.79086 40.2091 6 38 6H30ZM32 13C32 12.4477 32.4477 12 33 12H35C35.5523 12 36 12.4477 36 13V15C36 15.5523 35.5523 16 35 16H33C32.4477 16 32 15.5523 32 15V13Z" fill="#27215B"/>
</svg>
