<svg width="48" height="48" viewBox="0 0 48 48" fill="none" xmlns="http://www.w3.org/2000/svg">
<path d="M41 27C41 26.4477 40.5523 26 40 26C39.4477 26 39 26.4477 39 27L41 27ZM37.3035 35.8891L36.472 35.3335L36.472 35.3335L37.3035 35.8891ZM30.1229 41.7821L30.5056 42.7059L30.5056 42.7059L30.1229 41.7821ZM20.8786 42.6926L20.6835 43.6733L20.6835 43.6733L20.8786 42.6926ZM12.6863 38.3137L11.9792 39.0208L12.6863 38.3137ZM8.30744 30.1214L7.32666 30.3165L7.32666 30.3165L8.30744 30.1214ZM9.21793 20.8771L8.29405 20.4944L8.29405 20.4944L9.21793 20.8771ZM15.1109 13.6965L15.6665 14.528L15.6665 14.528L15.1109 13.6965ZM27.5306 11.7071C27.9212 11.3166 27.9212 10.6834 27.5306 10.2929L21.1667 3.92893C20.7761 3.53841 20.143 3.53841 19.7525 3.92893C19.3619 4.31946 19.3619 4.95262 19.7525 5.34315L25.4093 11L19.7525 16.6569C19.3619 17.0474 19.3619 17.6805 19.7525 18.0711C20.143 18.4616 20.7761 18.4616 21.1667 18.0711L27.5306 11.7071ZM39 27C39 29.9667 38.1203 32.8668 36.472 35.3335L38.135 36.4447C40.003 33.6491 41 30.3623 41 27L39 27ZM36.472 35.3335C34.8238 37.8003 32.4811 39.7229 29.7403 40.8582L30.5056 42.7059C33.612 41.4193 36.267 39.2403 38.135 36.4447L36.472 35.3335ZM29.7403 40.8582C26.9994 41.9935 23.9834 42.2905 21.0736 41.7118L20.6835 43.6733C23.9811 44.3293 27.3993 43.9926 30.5056 42.7059L29.7403 40.8582ZM21.0736 41.7118C18.1639 41.133 15.4912 39.7044 13.3934 37.6066L11.9792 39.0208C14.3567 41.3983 17.3858 43.0174 20.6835 43.6733L21.0736 41.7118ZM13.3934 37.6066C11.2956 35.5088 9.86701 32.8361 9.28823 29.9264L7.32666 30.3165C7.98261 33.6142 9.6017 36.6433 11.9792 39.0208L13.3934 37.6066ZM9.28823 29.9264C8.70945 27.0166 9.0065 24.0006 10.1418 21.2597L8.29405 20.4944C7.00736 23.6007 6.67071 27.0189 7.32666 30.3165L9.28823 29.9264ZM10.1418 21.2597C11.2771 18.5189 13.1997 16.1762 15.6665 14.528L14.5553 12.865C11.7597 14.733 9.58074 17.388 8.29405 20.4944L10.1418 21.2597ZM15.6665 14.528C18.1332 12.8797 21.0333 12 24 12L24 10C20.6377 10 17.3509 10.997 14.5553 12.865L15.6665 14.528ZM24 12L26.8235 12L26.8235 10L24 10L24 12Z" fill="#27215B"/>
</svg>
