<svg width="48" height="48" viewBox="0 0 48 48" fill="none" xmlns="http://www.w3.org/2000/svg">
<path fill-rule="evenodd" clip-rule="evenodd" d="M42 24C42 33.9411 33.9411 42 24 42C14.0589 42 6 33.9411 6 24C6 14.0589 14.0589 6 24 6C33.9411 6 42 14.0589 42 24ZM44 24C44 35.0457 35.0457 44 24 44C12.9543 44 4 35.0457 4 24C4 12.9543 12.9543 4 24 4C35.0457 4 44 12.9543 44 24ZM33.9819 12.6314C34.8914 12.0251 35.975 13.1086 35.3686 14.0181L27.0503 26.4956C26.9038 26.7153 26.7153 26.9038 26.4956 27.0503L14.0181 35.3686C13.1086 35.975 12.025 34.8914 12.6314 33.9819L20.9497 21.5044C21.0962 21.2847 21.2847 21.0962 21.5044 20.9497L33.9819 12.6314ZM26 24C26 25.1046 25.1046 26 24 26C22.8954 26 22 25.1046 22 24C22 22.8955 22.8954 22 24 22C25.1046 22 26 22.8955 26 24Z" fill="#27215B"/>
</svg>
