<svg width="48" height="48" viewBox="0 0 48 48" fill="none" xmlns="http://www.w3.org/2000/svg">
<path fill-rule="evenodd" clip-rule="evenodd" d="M24.7071 3.29289C24.3166 2.90237 23.6834 2.90237 23.2929 3.29289L16.9289 9.65685C16.5384 10.0474 16.5384 10.6805 16.9289 11.0711C17.3195 11.4616 17.9526 11.4616 18.3431 11.0711L23 6.41421V22C23 22.5523 23.4477 23 24 23C24.5523 23 25 22.5523 25 22V6.41421L29.6569 11.0711C30.0474 11.4616 30.6805 11.4616 31.0711 11.0711C31.4616 10.6805 31.4616 10.0474 31.0711 9.65685L24.7071 3.29289ZM14 19C14 17.3431 15.3431 16 17 16H19.6C20.1523 16 20.6 15.5523 20.6 15C20.6 14.4477 20.1523 14 19.6 14H17C14.2386 14 12 16.2386 12 19V33C12 35.7614 14.2386 38 17 38H31C33.7614 38 36 35.7614 36 33V19C36 16.2386 33.7614 14 31 14H28.4C27.8477 14 27.4 14.4477 27.4 15C27.4 15.5523 27.8477 16 28.4 16H31C32.6569 16 34 17.3431 34 19V33C34 34.6569 32.6569 36 31 36H17C15.3431 36 14 34.6569 14 33V19Z" fill="#27215B"/>
</svg>
