<svg width="108" height="113" viewBox="0 0 108 113" fill="none" xmlns="http://www.w3.org/2000/svg">
<path d="M22 32C22 14.3269 36.3269 0 54 0C71.6731 0 86 14.3269 86 32C86 49.6731 71.6731 64 54 64C36.3269 64 22 49.6731 22 32Z" fill="#27215B"/>
<circle cx="54" cy="35" r="17" stroke="white" stroke-width="2"/>
<path d="M54 18V12" stroke="white" stroke-width="2" stroke-linecap="round"/>
<path d="M54 35L48 24.6077" stroke="white" stroke-width="2" stroke-linecap="round"/>
<path d="M66 23L69 20" stroke="white" stroke-width="2" stroke-linecap="round"/>
<path d="M51 12L57 12" stroke="white" stroke-width="2" stroke-linecap="round"/>
<path d="M7.32812 86V75.3438H6.32812C5.48438 75.8125 4.5 76.4062 3.67969 76.9844V78.125C4.45312 77.5938 5.60938 76.8906 6.23438 76.5312H6.25V86H7.32812ZM13.4688 86H14.5469V80.7812C14.5469 79.4922 15.3516 78.6875 16.4844 78.6875C17.6797 78.6875 18.3906 79.4297 18.3906 80.7578V86H19.4609V80.7656C19.4609 79.6016 20.1484 78.6875 21.4219 78.6875C22.6406 78.6875 23.3047 79.4922 23.3047 80.6484V86H24.3828V80.4375C24.3828 78.7266 23.3359 77.6953 21.6484 77.6953C20.2656 77.6953 19.4219 78.3984 19.1406 79.0938H19.0938C18.7891 78.2734 18.0234 77.6953 16.7109 77.6953C15.5625 77.6953 14.8594 78.3359 14.6016 78.8984H14.5469V77.8359H13.4688V86ZM26.7031 75.8203C26.7031 76.2422 27.0391 76.5781 27.4531 76.5781C27.8672 76.5781 28.2109 76.2422 28.2109 75.8203C28.2109 75.4062 27.8672 75.0703 27.4531 75.0703C27.0391 75.0703 26.7031 75.4062 26.7031 75.8203ZM26.9141 86H27.9922V77.8359H26.9141V86ZM30.5781 86H31.6562V81C31.6562 79.8047 32.3281 78.6875 33.8594 78.6875C35.1562 78.6875 35.9766 79.5 35.9766 80.8984V86H37.0547V80.7422C37.0547 78.7656 35.8125 77.6953 34.1328 77.6953C32.7656 77.6953 31.9922 78.4219 31.6875 79.0078H31.6562V77.8359H30.5781V86ZM43.1406 77.8359H41.9922V78.7578H43.1406V83.8203C43.1406 85.375 43.5078 86.0781 45.3281 86.0781C45.6094 86.0781 45.8828 86.0469 46.0078 86.0156V85.1328C45.8828 85.1484 45.75 85.1562 45.5938 85.1562C44.5547 85.1562 44.2109 84.8984 44.2109 83.8984V78.7578H45.9375V77.8359H44.2109V75.7969H43.1406V77.8359ZM50.9609 77.6953C48.7734 77.6953 47.5234 79.2734 47.5234 81.4844V82.3359C47.5234 84.5547 48.7734 86.1328 50.9609 86.1328C53.1484 86.1328 54.3906 84.5547 54.3906 82.3359V81.4844C54.3906 79.2812 53.1406 77.6953 50.9609 77.6953ZM50.9609 78.6484C52.4297 78.6484 53.3125 79.7344 53.3125 81.5469V82.2812C53.3125 84.0859 52.4297 85.1719 50.9609 85.1719C49.4844 85.1719 48.6016 84.0859 48.6016 82.2812V81.5469C48.6016 79.7344 49.4922 78.6484 50.9609 78.6484ZM59.4609 82.3438C59.4609 84.5312 60.6719 86.1328 62.7812 86.1328C64.6797 86.1328 65.6328 85.0938 65.8828 83.8125H64.8125C64.6562 84.5156 64.0234 85.1484 62.8672 85.1484C61.4453 85.1484 60.5391 84.0625 60.5391 82.3359V81.4922C60.5391 79.7188 61.4062 78.6797 62.8438 78.6797C63.875 78.6797 64.5781 79.3906 64.7578 80.1562H65.8359C65.7578 78.9609 64.6562 77.6953 62.7734 77.6953C60.7188 77.6953 59.4609 79.2031 59.4609 81.4219V82.3438ZM67.8906 86H68.9688V80.9609C68.9688 79.6953 69.5 78.7109 70.9688 78.7109C71.2188 78.7109 71.4844 78.7266 71.6016 78.75V77.7422C71.4531 77.7266 71.2812 77.7109 71.0938 77.7109C69.8594 77.7109 69.25 78.3828 69 78.9453H68.9688V77.8359H67.8906V86ZM76.2031 86.1328C77.9844 86.1328 79.0312 85.1172 79.3125 83.8516H78.2188C77.9766 84.625 77.3281 85.2031 76.2344 85.2031C74.7891 85.2031 73.9375 84.0781 73.9375 82.3672V82.1719H79.4297V81.4922C79.4297 79.1953 78.2109 77.6953 76.1406 77.6953C74.0469 77.6953 72.8516 79.2031 72.8516 81.4062V82.3359C72.8516 84.6484 74.1094 86.1328 76.2031 86.1328ZM73.9375 81.2344V81.2109C73.9375 79.7266 74.7969 78.6328 76.1406 78.6328C77.4688 78.6328 78.3438 79.7266 78.3438 81.2109V81.2344H73.9375ZM83.7422 86.1328C85.0391 86.1328 85.8047 85.5391 86.1719 84.9062H86.2031V86H87.25V80.2969C87.25 78.6328 86.0391 77.6953 84.3359 77.6953C82.4609 77.6953 81.5 78.6797 81.3984 80.0781H82.4219C82.5312 79.2031 83.1484 78.6328 84.2969 78.6328C85.4766 78.6328 86.1719 79.25 86.1719 80.4297V81.3516H83.9141C82.0547 81.3594 81.0781 82.2656 81.0781 83.6719C81.0781 85.1641 82.1641 86.1328 83.7422 86.1328ZM83.9922 85.2031C83.0312 85.2031 82.1953 84.6797 82.1953 83.6406C82.1953 82.8203 82.7188 82.2344 83.9531 82.2344H86.1719V83.2734C86.1719 84.4141 85.2266 85.2031 83.9922 85.2031ZM90.1562 77.8359H89.0078V78.7578H90.1562V83.8203C90.1562 85.375 90.5234 86.0781 92.3438 86.0781C92.625 86.0781 92.8984 86.0469 93.0234 86.0156V85.1328C92.8984 85.1484 92.7656 85.1562 92.6094 85.1562C91.5703 85.1562 91.2266 84.8984 91.2266 83.8984V78.7578H92.9531V77.8359H91.2266V75.7969H90.1562V77.8359ZM97.8906 86.1328C99.6719 86.1328 100.719 85.1172 101 83.8516H99.9062C99.6641 84.625 99.0156 85.2031 97.9219 85.2031C96.4766 85.2031 95.625 84.0781 95.625 82.3672V82.1719H101.117V81.4922C101.117 79.1953 99.8984 77.6953 97.8281 77.6953C95.7344 77.6953 94.5391 79.2031 94.5391 81.4062V82.3359C94.5391 84.6484 95.7969 86.1328 97.8906 86.1328ZM95.625 81.2344V81.2109C95.625 79.7266 96.4844 78.6328 97.8281 78.6328C99.1562 78.6328 100.031 79.7266 100.031 81.2109V81.2344H95.625ZM103.32 88.1719L104.305 84.5312H103.133L102.461 88.1719H103.32ZM2.59375 104.992H3.66406C5.25 104.992 6.24219 105.82 6.25781 107.094C6.26562 108.352 5.32812 109.273 3.71875 109.273C2.16406 109.273 1.40625 108.344 1.28125 107.289H0.242188C0.296875 108.867 1.42969 110.234 3.67969 110.234C5.84375 110.234 7.39844 108.891 7.36719 107.078C7.33594 105.352 5.92188 104.547 4.92969 104.461V104.445C5.8125 104.32 6.97656 103.352 6.94531 101.82C6.90625 100.305 5.64844 99.1172 3.67969 99.1172C1.51562 99.1172 0.523438 100.664 0.507812 101.945H1.5625C1.61719 101.125 2.19531 100.078 3.67969 100.078C5.00781 100.078 5.82031 100.883 5.82812 102C5.83594 103.156 4.9375 104.016 3.59375 104.016H2.59375V104.992ZM12.3438 104.102C12.3438 105.547 13.5547 105.992 15.0938 106.336C16.3438 106.602 17.2266 106.805 17.2266 107.781C17.2266 108.602 16.5312 109.211 15.2266 109.211C13.9688 109.211 13.3203 108.586 13.2266 107.844H12.1641C12.1641 109.195 13.3203 110.133 15.1484 110.133C16.9688 110.133 18.2969 109.273 18.2969 107.664C18.2969 106.055 16.9609 105.688 15.4531 105.391C14.4141 105.172 13.4062 104.945 13.4062 103.992C13.4062 103.078 14.1875 102.625 15.2266 102.625C16.6172 102.625 17.0469 103.445 17.0781 104.078H18.1016C18.1016 102.852 17.2031 101.695 15.2656 101.695C13.7109 101.695 12.3438 102.461 12.3438 104.102ZM23.3125 110.133C25.0938 110.133 26.1406 109.117 26.4219 107.852H25.3281C25.0859 108.625 24.4375 109.203 23.3438 109.203C21.8984 109.203 21.0469 108.078 21.0469 106.367V106.172H26.5391V105.492C26.5391 103.195 25.3203 101.695 23.25 101.695C21.1562 101.695 19.9609 103.203 19.9609 105.406V106.336C19.9609 108.648 21.2188 110.133 23.3125 110.133ZM21.0469 105.234V105.211C21.0469 103.727 21.9062 102.633 23.25 102.633C24.5781 102.633 25.4531 103.727 25.4531 105.211V105.234H21.0469ZM28.3359 106.344C28.3359 108.531 29.5469 110.133 31.6562 110.133C33.5547 110.133 34.5078 109.094 34.7578 107.812H33.6875C33.5312 108.516 32.8984 109.148 31.7422 109.148C30.3203 109.148 29.4141 108.062 29.4141 106.336V105.492C29.4141 103.719 30.2812 102.68 31.7188 102.68C32.75 102.68 33.4531 103.391 33.6328 104.156H34.7109C34.6328 102.961 33.5312 101.695 31.6484 101.695C29.5938 101.695 28.3359 103.203 28.3359 105.422V106.344ZM40.4688 101.836H39.3203V102.758H40.4688V107.82C40.4688 109.375 40.8359 110.078 42.6562 110.078C42.9375 110.078 43.2109 110.047 43.3359 110.016V109.133C43.2109 109.148 43.0781 109.156 42.9219 109.156C41.8828 109.156 41.5391 108.898 41.5391 107.898V102.758H43.2656V101.836H41.5391V99.7969H40.4688V101.836ZM48.2891 101.695C46.1016 101.695 44.8516 103.273 44.8516 105.484V106.336C44.8516 108.555 46.1016 110.133 48.2891 110.133C50.4766 110.133 51.7188 108.555 51.7188 106.336V105.484C51.7188 103.281 50.4688 101.695 48.2891 101.695ZM48.2891 102.648C49.7578 102.648 50.6406 103.734 50.6406 105.547V106.281C50.6406 108.086 49.7578 109.172 48.2891 109.172C46.8125 109.172 45.9297 108.086 45.9297 106.281V105.547C45.9297 103.734 46.8203 102.648 48.2891 102.648ZM60.6406 110.133C62.5 110.133 63.8828 108.742 63.8828 106.383V105.453C63.8828 103.102 62.5156 101.695 60.6875 101.695C59.4375 101.695 58.625 102.391 58.2031 103.094H58.1719V101.836H57.1484V112.688H58.2266V108.812H58.2578C58.6719 109.516 59.4609 110.133 60.6406 110.133ZM60.5938 109.172C59.1094 109.172 58.2031 107.992 58.2031 106.273V105.5C58.2031 103.859 59.0859 102.648 60.5625 102.648C61.9453 102.648 62.8047 103.703 62.8047 105.508V106.266C62.8047 108.172 61.875 109.172 60.5938 109.172ZM66.0469 110H67.125V104.961C67.125 103.695 67.6562 102.711 69.125 102.711C69.375 102.711 69.6406 102.727 69.7578 102.75V101.742C69.6094 101.727 69.4375 101.711 69.25 101.711C68.0156 101.711 67.4062 102.383 67.1562 102.945H67.125V101.836H66.0469V110ZM74.3594 110.133C76.1406 110.133 77.1875 109.117 77.4688 107.852H76.375C76.1328 108.625 75.4844 109.203 74.3906 109.203C72.9453 109.203 72.0938 108.078 72.0938 106.367V106.172H77.5859V105.492C77.5859 103.195 76.3672 101.695 74.2969 101.695C72.2031 101.695 71.0078 103.203 71.0078 105.406V106.336C71.0078 108.648 72.2656 110.133 74.3594 110.133ZM72.0938 105.234V105.211C72.0938 103.727 72.9531 102.633 74.2969 102.633C75.625 102.633 76.5 103.727 76.5 105.211V105.234H72.0938ZM79.3906 104.102C79.3906 105.547 80.6016 105.992 82.1406 106.336C83.3906 106.602 84.2734 106.805 84.2734 107.781C84.2734 108.602 83.5781 109.211 82.2734 109.211C81.0156 109.211 80.3672 108.586 80.2734 107.844H79.2109C79.2109 109.195 80.3672 110.133 82.1953 110.133C84.0156 110.133 85.3438 109.273 85.3438 107.664C85.3438 106.055 84.0078 105.688 82.5 105.391C81.4609 105.172 80.4531 104.945 80.4531 103.992C80.4531 103.078 81.2344 102.625 82.2734 102.625C83.6641 102.625 84.0938 103.445 84.125 104.078H85.1484C85.1484 102.852 84.25 101.695 82.3125 101.695C80.7578 101.695 79.3906 102.461 79.3906 104.102ZM90.3594 110.133C92.1406 110.133 93.1875 109.117 93.4688 107.852H92.375C92.1328 108.625 91.4844 109.203 90.3906 109.203C88.9453 109.203 88.0938 108.078 88.0938 106.367V106.172H93.5859V105.492C93.5859 103.195 92.3672 101.695 90.2969 101.695C88.2031 101.695 87.0078 103.203 87.0078 105.406V106.336C87.0078 108.648 88.2656 110.133 90.3594 110.133ZM88.0938 105.234V105.211C88.0938 103.727 88.9531 102.633 90.2969 102.633C91.625 102.633 92.5 103.727 92.5 105.211V105.234H88.0938ZM95.7188 110H96.7969V105C96.7969 103.805 97.4688 102.688 99 102.688C100.297 102.688 101.117 103.5 101.117 104.898V110H102.195V104.742C102.195 102.766 100.953 101.695 99.2734 101.695C97.9062 101.695 97.1328 102.422 96.8281 103.008H96.7969V101.836H95.7188V110ZM105.047 101.836H103.898V102.758H105.047V107.82C105.047 109.375 105.414 110.078 107.234 110.078C107.516 110.078 107.789 110.047 107.914 110.016V109.133C107.789 109.148 107.656 109.156 107.5 109.156C106.461 109.156 106.117 108.898 106.117 107.898V102.758H107.844V101.836H106.117V99.7969H105.047V101.836Z" fill="black"/>
</svg>
