<svg width="48" height="48" viewBox="0 0 48 48" fill="none" xmlns="http://www.w3.org/2000/svg">
<path fill-rule="evenodd" clip-rule="evenodd" d="M27 7C29.2091 7 31 8.79086 31 11V12C31 12.5523 30.5523 13 30 13C29.4477 13 29 12.5523 29 12V11C29 9.89543 28.1046 9 27 9H9C7.89543 9 7 9.89543 7 11V30.3944C7 31.9918 8.78029 32.9446 10.1094 32.0585L13.4453 29.8346C13.9048 29.5283 14.5257 29.6524 14.8321 30.112C15.1384 30.5715 15.0142 31.1924 14.5547 31.4987L11.2188 33.7227C8.56058 35.4948 5 33.5892 5 30.3944V11C5 8.79086 6.79086 7 9 7H27ZM20 15C18.3431 15 17 16.3431 17 18V34C17 35.6569 18.3431 37 20 37H29.3944C29.5919 37 29.7849 37.0584 29.9492 37.1679L38.3359 42.7591C40.3296 44.0882 43 42.6591 43 40.263V18C43 16.3431 41.6569 15 40 15H20ZM19 18C19 17.4477 19.4477 17 20 17H40C40.5523 17 41 17.4477 41 18V40.263C41 41.0617 40.1099 41.5381 39.4453 41.095L31.0585 35.5038C30.5657 35.1753 29.9867 35 29.3944 35H20C19.4477 35 19 34.5523 19 34V18Z" fill="#27215B"/>
</svg>
