<svg width="48" height="48" viewBox="0 0 48 48" fill="none" xmlns="http://www.w3.org/2000/svg">
<path fill-rule="evenodd" clip-rule="evenodd" d="M24 3.5C21.7316 3.5 20.1336 3.66423 19.2056 3.7986C19.0724 3.81789 18.933 3.93406 18.9174 4.15155C18.9029 4.35335 18.8893 4.54738 18.8761 4.73399L18.876 4.73454L18.876 4.73505V4.73505V4.73506C18.8043 5.75028 18.7481 6.54589 18.6672 7.18007C18.5695 7.94555 18.426 8.57102 18.1241 9.15892C18.0636 9.27679 17.9982 9.3902 17.928 9.50039C17.952 9.50013 17.976 9.5 18 9.5L30 9.5C30.024 9.5 30.048 9.50013 30.072 9.50039C30.0018 9.3902 29.9364 9.27679 29.8759 9.15892C29.574 8.57102 29.4305 7.94555 29.3328 7.18007C29.2519 6.5459 29.1957 5.7503 29.124 4.7351C29.1108 4.54815 29.0971 4.35376 29.0826 4.15155C29.067 3.93406 28.9276 3.81789 28.7944 3.7986C27.8664 3.66423 26.2684 3.5 24 3.5ZM13.5 18V16C13.5 13.5147 15.5147 11.5 18 11.5L30 11.5C32.4853 11.5 34.5 13.5147 34.5 16V18L34.5 30L34.5 32C34.5 34.4853 32.4853 36.5 30 36.5H18C15.5158 36.5 13.5018 34.4871 13.5 32.0033L13.5 30L13.5 18ZM36.5 21L36.5 30L36.5 32L36.5 32.1897C36.5 33.9657 35.7649 35.5719 34.585 36.7175C34.1008 37.1876 33.7086 37.5571 33.3734 37.873L33.3731 37.8733C33.0454 38.182 32.7721 38.4395 32.5205 38.6896C32.0433 39.1638 31.8071 39.4585 31.6551 39.7547C31.5059 40.0451 31.4016 40.4083 31.3167 41.0732C31.2435 41.6463 31.1922 42.3727 31.12 43.3931C31.1066 43.5822 31.0925 43.7814 31.0775 43.9915C31.0007 45.062 30.2257 46.015 29.081 46.1808C28.0591 46.3287 26.3653 46.5 24 46.5C21.6347 46.5 19.9409 46.3287 18.919 46.1808C17.7743 46.015 16.9993 45.062 16.9225 43.9915C16.9075 43.7823 16.8935 43.584 16.8802 43.3957L16.88 43.3932C16.8078 42.3727 16.7565 41.6463 16.6833 41.0732C16.5984 40.4083 16.4941 40.0451 16.3449 39.7546C16.1929 39.4585 15.9567 39.1638 15.4795 38.6895C15.2279 38.4395 14.9546 38.182 14.6269 37.8733C14.2916 37.5574 13.8993 37.1877 13.415 36.7175C12.2351 35.5719 11.5 33.9657 11.5 32.1897V32V30V18V16V15.8103C11.5 14.0343 12.2351 12.4281 13.415 11.2825C13.8993 10.8123 14.2916 10.4426 14.6269 10.1267L14.6269 10.1267L14.627 10.1266C14.9547 9.81789 15.2279 9.56044 15.4795 9.31045C15.9567 8.8362 16.1929 8.5415 16.3449 8.24535C16.4941 7.95489 16.5984 7.59165 16.6833 6.92684C16.7565 6.3537 16.8078 5.62737 16.88 4.60693L16.88 4.60689L16.88 4.60687C16.8934 4.4178 16.9075 4.21863 16.9225 4.00847C16.9993 2.93798 17.7743 1.985 18.919 1.81924C19.9409 1.67127 21.6347 1.5 24 1.5C26.3653 1.5 28.0591 1.67127 29.081 1.81924C30.2257 1.985 31.0007 2.93798 31.0775 4.00847C31.0925 4.21797 31.1065 4.41655 31.1199 4.60509L31.12 4.60679V4.60681V4.60684C31.1922 5.62732 31.2435 6.35368 31.3167 6.92684C31.4016 7.59165 31.5059 7.95489 31.6551 8.24535C31.8071 8.5415 32.0433 8.8362 32.5205 9.31045C32.7721 9.56048 33.0454 9.81796 33.3731 10.1267C33.7084 10.4426 34.1007 10.8123 34.585 11.2825C35.7649 12.4281 36.5 14.0343 36.5 15.8103V16L37.5 16C37.7761 16 38 16.2239 38 16.5V20.5C38 20.7761 37.7761 21 37.5 21H36.5ZM30.072 38.4996L30.0276 38.4999L30 38.5H18C17.976 38.5 17.952 38.4999 17.928 38.4996C17.9982 38.6098 18.0636 38.7232 18.1241 38.8411C18.426 39.429 18.5695 40.0544 18.6672 40.8199C18.7481 41.4541 18.8043 42.2497 18.876 43.2649C18.8892 43.4518 18.9029 43.6462 18.9174 43.8484C18.933 44.0659 19.0724 44.1821 19.2056 44.2014C20.1336 44.3358 21.7316 44.5 24 44.5C26.2684 44.5 27.8664 44.3358 28.7944 44.2014C28.9276 44.1821 29.067 44.0659 29.0826 43.8485C29.097 43.6474 29.1107 43.454 29.1238 43.268L29.124 43.265C29.1957 42.2497 29.2519 41.4541 29.3328 40.8199C29.4305 40.0544 29.574 39.429 29.8759 38.8411C29.9364 38.7232 30.0018 38.6098 30.072 38.4996Z" fill="white"/>
</svg>